<svg width="60" height="60" viewBox="0 0 60 60" fill="none" xmlns="http://www.w3.org/2000/svg">
<defs>
  <clipPath id="circle-clip">
    <circle cx="30.0" cy="30.0" r="30.0"/>
  </clipPath>
</defs>
<g clip-path="url(#circle-clip)">

<rect width="60" height="60" fill="#00205B"/>
<g clip-path="url(#clip0_150_739)">
<path d="M17.3935 20.1279H10.7561C10.7561 20.1279 10.1497 20.2505 10.1497 20.6183C10.271 20.9861 10.5135 21.1087 11.1123 21.1087V39.7583L10.8671 40.0035C10.8671 40.0035 10.1497 40.0035 10.0284 40.3713C9.90709 40.7392 10.3923 40.8618 10.7561 40.8618H20.289C20.289 40.8618 26.0852 40.6166 26.0852 36.8339V23.7879C26.0852 23.7879 25.3574 20.1279 21.5019 20.0052C17.6361 20.1279 17.3935 20.1279 17.3935 20.1279ZM19.8116 21.1087C20.4103 21.2313 20.289 21.7113 20.289 21.7113V38.2948C20.0464 40.2487 16.9084 40.1261 16.9084 40.1261V21.1087H19.8116ZM44.449 20.2505C45.5329 20.2505 47.4658 22.0792 47.5871 23.5426C47.7084 24.5235 47.7084 25.6166 47.7084 26.467C47.7084 29.6366 44.8052 30.3722 44.8052 30.3722C45.2903 30.4948 46.3742 30.6174 47.3445 31.22C48.3045 31.8331 48.5471 33.1739 48.5471 33.1739V39.8809L48.7897 40.1261H49.7626C49.8839 40.1261 49.9948 40.1261 49.9948 40.4939C49.9948 41.0966 49.52 40.9739 49.52 40.9739H43.4787C42.8723 40.9739 42.3948 39.7583 42.3948 39.7583V31.8331C42.3948 31.22 41.1819 31.1079 41.1819 31.1079H39.249V39.6357L39.3703 39.8809H40.0981C40.2194 39.8809 40.4619 39.7583 40.4619 40.2487C40.4619 40.8618 40.2194 40.7392 40.2194 40.7392H32.4903C32.2477 40.7392 32.1264 40.7392 32.1264 40.3713C32.1264 40.1261 32.4903 39.8809 32.4903 39.8809H32.9755L33.3393 39.5131V21.2313L33.0968 20.9861H32.4903C32.0052 20.9861 32.2477 20.8635 32.2477 20.3731C32.2477 20.0052 32.6116 20.1279 32.6116 20.1279H39.0168C39.249 20.2505 43.3574 20.2505 44.449 20.2505ZM40.8284 21.1087H39.4916V30.127H42.031C42.031 30.127 42.6374 30.127 42.6374 29.2766V21.7113C42.6374 21.7113 42.5161 21.1087 41.7884 21.1087H40.8284Z" fill="white"/>
</g>
<defs>
<clipPath id="clip0_150_739">
<rect width="40" height="21" fill="white" transform="translate(10 20)"/>
</clipPath>
</defs>

</g>
</svg>