<svg width="60" height="60" viewBox="0 0 60 60" fill="none" xmlns="http://www.w3.org/2000/svg">
<defs>
  <clipPath id="circle-clip">
    <circle cx="30.0" cy="30.0" r="30.0"/>
  </clipPath>
</defs>
<g clip-path="url(#circle-clip)">

<rect width="60" height="60" fill="#006554"/>
<g clip-path="url(#clip0_150_998)">
<mask id="mask0_150_998" style="mask-type:luminance" maskUnits="userSpaceOnUse" x="8" y="20" width="44" height="20">
<path d="M8 20H52V40H8V20Z" fill="white"/>
</mask>
<g mask="url(#mask0_150_998)">
<path d="M8 20H52V40H8V20Z" fill="#006554"/>
<path fill-rule="evenodd" clip-rule="evenodd" d="M15.5809 36.8666H10.5005V23.8811H15.476L17.4407 25.7652V34.9855M13.0747 26.4637V34.5594H14.2966V26.4637H13.0747ZM21.251 36.8666H18.3819V23.8811H21.251V36.8666ZM29.1126 28.8608H26.3116V26.3275H25.0755V34.4202H26.3116V31.3246H29.1126V34.9855L27.216 36.8666H24.259L22.2036 34.9855V25.7652L24.0861 23.8811H27.216L29.1126 25.7652V28.8608ZM32.8889 29.4231H32.9229L34.8025 23.8811H37.7425L35.2533 29.9478L38.1252 36.8666H35.0095L32.9229 31.3246H32.8889V36.8666H30.017V23.8811H32.8889V29.4231ZM47.4809 23.8811L49.4995 25.7652V28.0637H46.6304V26.3275H45.4453V28.971L47.5348 29.1507L49.4995 31.0347V34.9855L47.6198 36.8666H44.4361L42.5763 34.9855V32.7014H45.4453V34.4202H46.6304V31.7043L44.5778 31.542L42.5763 29.6579V25.7652L44.4531 23.8811H47.4809Z" fill="white"/>
<path d="M39.4747 29.4812C39.7072 29.2841 39.8631 29.1044 39.9623 28.9304C40.0616 28.7565 40.1013 28.5913 40.1013 28.4406C40.1013 28.2986 40.0672 28.1739 40.0219 28.058L39.8404 28.1362C39.8801 28.2319 39.9056 28.3304 39.9056 28.4377C39.9056 28.5536 39.8773 28.6812 39.7922 28.829C39.7072 28.9739 39.5683 29.1391 39.35 29.3247L39.4747 29.4783V29.4812Z" fill="#147C6B"/>
<path d="M39.3585 29.9218C39.7611 29.6493 40.0049 29.4058 40.1495 29.1739C40.1816 29.1256 40.209 29.0754 40.2317 29.0232C40.2563 28.971 40.2761 28.9169 40.2912 28.8609C40.3063 28.8068 40.3177 28.7507 40.3252 28.6928C40.3328 28.6367 40.3366 28.5797 40.3366 28.5218C40.3366 28.4812 40.3366 28.4406 40.3338 28.4L40.1381 28.4116C40.141 28.4493 40.141 28.4841 40.141 28.5218C40.141 28.6986 40.1098 28.8667 39.985 29.0667C39.8603 29.2667 39.6392 29.4928 39.2479 29.7565L39.3557 29.9218H39.3585Z" fill="#147C6B"/>
<path d="M39.1543 30.4057C39.5711 30.2434 39.9255 29.9565 40.1778 29.6608C40.3054 29.5101 40.4046 29.3565 40.4755 29.2086C40.5435 29.0608 40.586 28.9217 40.586 28.7912C40.586 28.7739 40.586 28.7594 40.5832 28.7449L40.3904 28.7623V28.7912C40.3904 28.8782 40.3621 28.9941 40.2997 29.1217C40.209 29.3159 40.0474 29.5362 39.8404 29.7333C39.7856 29.7855 39.728 29.8347 39.6675 29.8811C39.6089 29.9294 39.5484 29.9739 39.486 30.0144C39.4218 30.055 39.3566 30.0927 39.2904 30.1275C39.2224 30.1623 39.1543 30.1932 39.0863 30.2202L39.1572 30.4086L39.1543 30.4057Z" fill="#147C6B"/>
<path d="M39.4152 29.4261C39.6448 29.229 39.8036 29.0493 39.9028 28.8725C40.002 28.7015 40.0446 28.5363 40.0417 28.3826C40.0417 28.2435 40.0077 28.116 39.9595 28.0029L39.7809 28.0783C39.8206 28.1768 39.8461 28.2754 39.8461 28.3826C39.8461 28.4986 39.8178 28.6261 39.7327 28.7739C39.6477 28.9189 39.5087 29.087 39.2876 29.2725L39.4123 29.4232C39.4123 29.4232 39.4152 29.4232 39.4152 29.4261Z" fill="white"/>
<path d="M39.299 29.8667C39.7016 29.5942 39.9454 29.3508 40.0928 29.1189C40.1231 29.0706 40.1495 29.0203 40.1722 28.9682C40.1968 28.9141 40.2166 28.8599 40.2318 28.8058C40.2469 28.7498 40.2592 28.6938 40.2686 28.6377C40.2762 28.5798 40.279 28.5218 40.2771 28.4638C40.2771 28.4232 40.2771 28.3827 40.2743 28.345L40.0787 28.3566C40.0815 28.3942 40.0843 28.429 40.0843 28.4638C40.0843 28.6406 40.0503 28.8087 39.9284 29.0087C39.8037 29.2087 39.5797 29.4377 39.1913 29.7015L39.299 29.8667Z" fill="white"/>
<path d="M39.0948 30.3507C39.5144 30.1884 39.8659 29.9043 40.1183 29.6058C40.2458 29.455 40.3451 29.3014 40.4159 29.1536C40.4868 29.0058 40.5265 28.8666 40.5265 28.7362C40.5265 28.7217 40.5265 28.7043 40.5237 28.6898L40.328 28.7072V28.7362C40.328 28.8203 40.2997 28.9362 40.2402 29.0666C40.1494 29.2608 39.9878 29.4782 39.778 29.6782C39.7251 29.7304 39.6684 29.7797 39.6079 29.8261C39.5494 29.8724 39.4879 29.9159 39.4237 29.9565C39.3613 29.9971 39.2961 30.0347 39.228 30.0695C39.1619 30.1043 39.0939 30.1362 39.0239 30.1652L39.0948 30.3507Z" fill="white"/>
<path d="M40.6003 27.2812C40.331 27.1884 40.0389 27.2116 39.7895 27.3421C39.5371 27.4754 39.3472 27.7044 39.265 27.9797C39.1799 28.2551 39.2083 28.5537 39.3415 28.8058C39.4748 29.0609 39.7044 29.2493 39.9737 29.3305C40.2374 29.4058 40.5209 29.3768 40.7619 29.2435C41.0029 29.1102 41.1843 28.887 41.2665 28.6174C41.3487 28.3508 41.3232 28.0609 41.1985 27.8116C41.0737 27.5595 40.8583 27.3711 40.6003 27.2812Z" fill="#231F20"/>
<path d="M40.6002 27.2812L40.603 27.2609C40.4698 27.2203 40.328 27.203 40.1891 27.2175C40.0502 27.229 39.9141 27.2696 39.7894 27.3363C39.6646 27.403 39.5541 27.4957 39.4662 27.6059C39.3755 27.716 39.3074 27.8435 39.2677 27.9798C39.1827 28.258 39.2082 28.5566 39.3414 28.8117C39.4719 29.0696 39.6987 29.2609 39.968 29.3479C40.2402 29.4319 40.5322 29.4059 40.7817 29.2696C41.034 29.1363 41.2211 28.9044 41.3061 28.629C41.3373 28.5218 41.3543 28.4117 41.3543 28.3044C41.3543 27.8377 41.0623 27.4059 40.603 27.2609L40.6002 27.2812L40.5945 27.3015C40.7221 27.3421 40.844 27.4088 40.9461 27.4986C41.051 27.5856 41.136 27.6957 41.1984 27.8175C41.2608 27.9392 41.3005 28.0725 41.3118 28.2117C41.326 28.3479 41.3118 28.487 41.2693 28.6203C41.2296 28.7508 41.1644 28.8754 41.0793 28.9798C40.9914 29.087 40.8865 29.174 40.7646 29.2377C40.6456 29.3015 40.5152 29.3421 40.3791 29.3537C40.2458 29.3682 40.1097 29.3537 39.9822 29.3131C39.8518 29.2696 39.7327 29.203 39.6278 29.116C39.5257 29.0261 39.4378 28.9189 39.3755 28.7943C39.3131 28.6725 39.2734 28.5392 39.2621 28.4001C39.2507 28.2638 39.2649 28.1247 39.3046 27.9943C39.3443 27.8609 39.4095 27.7392 39.4974 27.6319C39.5824 27.5247 39.6902 27.4377 39.8092 27.374C39.9283 27.3102 40.0587 27.2696 40.1948 27.258C40.328 27.2435 40.4641 27.2609 40.5945 27.3015L40.6002 27.2812Z" fill="#231F20"/>
<path d="M41.3346 28.3566C41.3232 28.3537 41.3175 28.3595 41.3147 28.3653C41.3034 28.4087 41.2835 28.4377 41.2864 28.4812C41.2864 28.4986 41.2949 28.4957 41.2977 28.4725C41.2977 28.4406 41.3289 28.4087 41.3317 28.3826C41.3317 28.4232 41.3119 28.5276 41.3034 28.5537L41.292 28.5392C41.2722 28.5566 41.2637 28.5798 41.2495 28.6C41.2476 28.6058 41.2448 28.6107 41.241 28.6145C41.2372 28.6184 41.2334 28.6223 41.2297 28.6261C41.2259 28.63 41.2221 28.6329 41.2183 28.6348C41.2145 28.6387 41.2098 28.6416 41.2041 28.6435V28.6493C41.2155 28.6609 41.2353 28.6319 41.2268 28.658L41.2297 28.6638C41.241 28.658 41.2382 28.6464 41.2495 28.6377C41.2637 28.6116 41.2807 28.5855 41.3005 28.5624C41.2892 28.6116 41.275 28.658 41.2552 28.7073C41.2495 28.6957 41.2353 28.6928 41.2212 28.6957C41.1956 28.7044 41.1503 28.7653 41.1389 28.8087C41.1333 28.8261 41.1389 28.829 41.1474 28.8203C41.1673 28.7942 41.2127 28.7363 41.2297 28.7392C41.2127 28.7855 41.1956 28.8522 41.1503 28.8609C41.1418 28.8638 41.1248 28.8725 41.1304 28.8435C41.1021 28.858 41.0709 28.8783 41.0425 28.8783C41.0199 28.9102 40.9575 29.0116 40.9036 28.9653L40.8866 28.974C40.8809 28.916 40.983 28.8696 41.0312 28.8667C41.0397 28.8638 41.0425 28.8551 41.0369 28.8377C41.0199 28.8 40.9377 28.8435 40.8951 28.9276C40.8526 28.8899 40.7902 28.9334 40.7761 28.9508C40.7505 28.9855 40.6655 29.0261 40.6145 28.9508C40.6003 28.9537 40.5833 28.9624 40.5634 28.9624C40.5351 29.0145 40.4585 29.0464 40.4018 28.9942C40.3848 28.9971 40.3706 28.9971 40.3536 28.9971C40.3253 29.0493 40.2317 29.0493 40.1892 28.9653C40.1523 28.9653 40.1183 28.9421 40.0815 28.9363C40.0474 28.9682 39.9992 28.9711 39.9624 28.9508C39.9567 28.9469 39.9511 28.943 39.9454 28.9392C39.9397 28.9334 39.935 28.9276 39.9312 28.9218C39.9274 28.916 39.9246 28.9092 39.9227 28.9015C39.9189 28.8957 39.9161 28.8889 39.9142 28.8812H39.9057C39.8858 28.8029 39.832 28.7479 39.7299 28.7913C39.6902 28.7913 39.6761 28.7566 39.659 28.7334C39.6534 28.6812 39.6279 28.6261 39.5825 28.6C39.5768 28.5981 39.5712 28.5962 39.5655 28.5942C39.5579 28.5923 39.5513 28.5913 39.5456 28.5913C39.54 28.5913 39.5343 28.5923 39.5286 28.5942C39.5211 28.5962 39.5145 28.5981 39.5088 28.6C39.5003 28.5971 39.4974 28.5855 39.4918 28.5769C39.4776 28.5479 39.4407 28.5392 39.4351 28.5044C39.4464 28.4319 39.4067 28.3392 39.35 28.3595C39.3415 28.4 39.282 28.3537 39.3047 28.2464C39.265 28.2087 39.2933 28.1276 39.2791 28.0928C39.2706 28.0667 39.3018 27.9653 39.3217 27.8928C39.3103 27.9305 39.3103 27.9942 39.3188 28.0087L39.3273 28.0058C39.333 27.9962 39.3368 27.9855 39.3387 27.974C39.3406 27.9643 39.3425 27.9537 39.3444 27.9421C39.3444 27.9305 39.3434 27.9198 39.3415 27.9102C39.3396 27.8986 39.3377 27.888 39.3358 27.8783L39.3273 27.8696C39.3925 27.6319 39.8717 27.0667 40.5748 27.2696C41.1163 27.4261 41.3601 27.9566 41.3289 28.3508L41.3346 28.3566Z" fill="white"/>
<path fill-rule="evenodd" clip-rule="evenodd" d="M39.3301 28.0464V28.0493C39.3301 28.0473 39.3292 28.0464 39.3273 28.0464H39.3301ZM39.3471 28.1478H39.3358L39.3386 28.1188C39.3471 28.0956 39.3386 28.0812 39.3386 28.0754L39.3301 28.0493C39.3585 28.0551 39.367 28.1072 39.3471 28.1478ZM40.2798 27.2725C40.311 27.2696 40.3394 27.2609 40.3451 27.2609C40.3337 27.287 40.2373 27.2927 40.2118 27.2783C40.2175 27.2696 40.2487 27.2754 40.2798 27.2725ZM40.0899 27.2927C40.1154 27.2841 40.1466 27.2696 40.1523 27.2725C40.1268 27.3043 40.0474 27.3246 40.0275 27.3101C40.0275 27.3072 40.0587 27.3014 40.0899 27.2927ZM39.968 27.3333C39.951 27.3507 39.8971 27.3826 39.8914 27.3594C39.9311 27.3565 39.9425 27.3246 39.9708 27.3159V27.3333H39.968ZM39.8262 27.3768C39.8262 27.4058 39.7752 27.4377 39.7639 27.4261C39.7951 27.4058 39.7894 27.3942 39.8149 27.371L39.8262 27.3768ZM39.6448 27.4985C39.6448 27.4985 39.6902 27.4638 39.6987 27.4377C39.7157 27.4522 39.6505 27.5188 39.6448 27.4985ZM39.5314 27.6261C39.539 27.6222 39.5456 27.6164 39.5512 27.6087C39.5569 27.601 39.5616 27.5932 39.5654 27.5855C39.5711 27.5778 39.5758 27.57 39.5796 27.5623C39.5815 27.5527 39.5834 27.543 39.5853 27.5333C39.5966 27.5652 39.5711 27.6261 39.5314 27.6261ZM41.2835 28.142C41.275 28.1826 41.3033 28.229 41.2835 28.2319C41.2608 28.2116 41.2409 28.113 41.2835 28.1014C41.3005 28.1101 41.2863 28.1246 41.2835 28.142ZM41.2608 28.3768C41.2579 28.3913 41.2579 28.3913 41.2523 28.4232C41.2381 28.4 41.2523 28.2927 41.2863 28.3014C41.3005 28.3333 41.2664 28.3536 41.2608 28.3768ZM39.4492 27.7449C39.4548 27.7768 39.4152 27.858 39.3981 27.858C39.4237 27.8232 39.4152 27.7652 39.4378 27.7362C39.4463 27.7246 39.4463 27.7362 39.4492 27.7449ZM41.1984 28.6C41.1842 28.5942 41.2126 28.4696 41.2523 28.4667C41.2721 28.5246 41.2012 28.5478 41.1984 28.6ZM41.1644 28.7188C41.1559 28.7507 41.1219 28.7275 41.102 28.7478C41.0907 28.7594 41.085 28.7797 41.068 28.7768C41.0765 28.7304 41.153 28.6725 41.1644 28.7188Z" fill="#231F20"/>
<path d="M39.2537 28.2348C39.2537 28.2251 39.2537 28.2155 39.2537 28.2058C39.2556 28.1961 39.2565 28.1874 39.2565 28.1797C39.2584 28.17 39.2603 28.1604 39.2622 28.1507C39.2641 28.1411 39.2659 28.1324 39.2678 28.1246C39.2877 28.1565 39.2792 28.2058 39.2565 28.2348H39.2537Z" fill="white"/>
<path d="M39.367 28.3421C39.3585 28.2957 39.3529 28.2609 39.3188 28.2319C39.3359 28.1624 39.4067 28.2522 39.367 28.3421Z" fill="#231F20"/>
<path d="M39.2905 28.3594L39.282 28.3768C39.2537 28.3623 39.2537 28.3246 39.2537 28.2957C39.2574 28.2995 39.2612 28.3043 39.265 28.3101C39.2688 28.314 39.2726 28.3188 39.2763 28.3246C39.2782 28.3304 39.2811 28.3362 39.2848 28.342C39.2867 28.3478 39.2886 28.3536 39.2905 28.3594ZM40.8073 29.0551C40.7931 29.058 40.7818 29.0638 40.7676 29.0551C40.7619 29.0493 40.7506 29.0435 40.7506 29.0319V29.0261C40.7846 29.0261 40.8158 29.0174 40.8441 29.0087L40.8753 28.9913C40.8696 29.0232 40.8328 29.0377 40.8073 29.0551Z" fill="white"/>
<path fill-rule="evenodd" clip-rule="evenodd" d="M39.8206 27.4377C39.8206 27.4725 39.7639 27.4986 39.7526 27.4957C39.7923 27.4841 39.7781 27.4348 39.8121 27.4261L39.8206 27.4377ZM39.6675 27.5276C39.6732 27.5653 39.6278 27.6117 39.5938 27.6001C39.5966 27.5856 39.6562 27.5711 39.659 27.5102L39.6675 27.5305V27.5276ZM39.4889 27.7595C39.5428 27.7305 39.5371 27.6754 39.5286 27.6406C39.5626 27.6696 39.5655 27.7653 39.4889 27.7595ZM41.2126 28.3943C41.2145 28.3943 41.2155 28.3943 41.2155 28.3943H41.2126ZM41.1474 28.4928C41.1446 28.4638 41.1418 28.4059 41.1843 28.3653C41.1985 28.3508 41.2183 28.3624 41.2126 28.3943C41.1758 28.3885 41.1531 28.4667 41.1474 28.4928ZM39.4351 27.8841C39.4436 27.9102 39.4209 28.003 39.3982 28.0001C39.4265 27.9392 39.4039 27.887 39.4039 27.887C39.3982 27.8696 39.4237 27.8522 39.4379 27.8841H39.4351ZM41.1701 28.5508C41.1616 28.5856 41.1191 28.5711 41.0992 28.6059C41.0964 28.6175 41.0907 28.629 41.0822 28.6348C41.0822 28.5885 41.1503 28.487 41.1701 28.5508ZM39.4379 28.0348C39.4634 28.0754 39.4379 28.1421 39.4265 28.1595C39.4322 28.1247 39.4407 28.0957 39.4152 28.0638C39.3783 28.029 39.4237 28.0059 39.4407 28.0319C39.4407 28.0319 39.4379 28.0319 39.4379 28.0348ZM41.0624 28.6696C41.0595 28.687 41.051 28.6812 41.034 28.6783C41.0085 28.6783 40.9575 28.7392 40.9575 28.7392C40.9631 28.687 41.034 28.5856 41.0624 28.6696ZM39.4804 28.3305C39.4549 28.3247 39.4861 28.2406 39.4152 28.2232C39.4209 28.1508 39.5201 28.2232 39.4804 28.3305ZM40.932 28.7711C40.9291 28.7856 40.9149 28.7798 40.9064 28.7827C40.8724 28.7972 40.8441 28.8261 40.8157 28.8464C40.81 28.8117 40.9121 28.7073 40.9348 28.774L40.932 28.7711ZM39.5513 28.5102C39.5513 28.5102 39.5371 28.5131 39.5286 28.4957C39.5201 28.4783 39.4946 28.429 39.4662 28.4232C39.4492 28.4204 39.4549 28.4088 39.4634 28.4001C39.5201 28.3392 39.5825 28.4725 39.5513 28.5102ZM40.7533 28.8899C40.7307 28.8899 40.6825 28.8696 40.6428 28.9073C40.6626 28.8493 40.725 28.829 40.759 28.8406C40.7902 28.8522 40.793 28.8841 40.7533 28.8899ZM39.8093 28.7247C39.8093 28.7247 39.7979 28.7508 39.7696 28.7073C39.7582 28.6928 39.7327 28.6493 39.6647 28.6493C39.7214 28.5566 39.8121 28.6406 39.8093 28.7247ZM40.5549 28.8957C40.5634 28.9073 40.5549 28.9566 40.5124 28.9363C40.5029 28.9305 40.4925 28.9257 40.4812 28.9218C40.4717 28.9199 40.4613 28.9189 40.45 28.9189C40.4387 28.9189 40.4283 28.9199 40.4188 28.9218C40.4075 28.9237 40.3971 28.9276 40.3876 28.9334C40.4443 28.8319 40.5322 28.8667 40.5549 28.8957ZM40.3649 28.945C40.3706 28.9711 40.3423 28.9711 40.3253 28.9595C40.3054 28.9479 40.2374 28.9305 40.2033 28.9508C40.192 28.9566 40.1892 28.9479 40.192 28.9421C40.2005 28.8754 40.3479 28.8493 40.3649 28.945ZM40.0956 28.9044C40.0899 28.9305 40.0588 28.9131 40.0417 28.9015C40.0342 28.8957 40.0247 28.8909 40.0134 28.887C40.0039 28.8832 39.9945 28.8793 39.985 28.8754C39.9756 28.8716 39.9652 28.8687 39.9539 28.8667C39.9444 28.8648 39.934 28.8629 39.9227 28.8609L39.917 28.8522C39.9964 28.745 40.1041 28.858 40.0956 28.9044Z" fill="#231F20"/>
<path fill-rule="evenodd" clip-rule="evenodd" d="M39.8716 28.9188C39.866 28.9226 39.8593 28.9255 39.8518 28.9275C39.8461 28.9294 39.8395 28.9313 39.8319 28.9333C39.8263 28.9333 39.8197 28.9323 39.8121 28.9304C39.8064 28.9284 39.8008 28.9265 39.7951 28.9246C39.7894 28.9207 39.7847 28.9159 39.7809 28.9101C39.7771 28.9062 39.7733 28.9014 39.7696 28.8956C39.7677 28.8898 39.7658 28.884 39.7639 28.8782C39.762 28.8705 39.7611 28.8637 39.7611 28.8579C39.7951 28.8724 39.8433 28.8869 39.8716 28.9188ZM39.7497 29.2144C39.7422 29.2106 39.7346 29.2067 39.727 29.2028C39.7214 29.197 39.7148 29.1922 39.7072 29.1883C39.6996 29.1825 39.6921 29.1768 39.6845 29.171C39.6788 29.1671 39.6722 29.1623 39.6647 29.1565C39.6987 29.1681 39.7355 29.1825 39.7497 29.2144Z" fill="white"/>
<path d="M39.3273 28.0464C39.3556 28.0522 39.367 28.1073 39.3471 28.1478H39.3329L39.3386 28.1189C39.3443 28.0957 39.3386 28.0812 39.3386 28.0754L39.3301 28.0464H39.3273Z" fill="#231F20"/>
<path fill-rule="evenodd" clip-rule="evenodd" d="M41.1162 28.8985C41.1143 28.9005 41.1134 28.9014 41.1134 28.9014C41.1134 28.8995 41.1143 28.8976 41.1162 28.8956V28.8985ZM41.1134 28.9014C41.0964 28.9449 41.068 28.9855 41.0312 28.9942C41.0047 28.998 41.0019 28.9778 41.0227 28.9333C41.034 28.9652 41.0964 28.9275 41.1134 28.9014ZM41.068 29.0203C41.0709 28.9884 41.1049 28.9507 41.1191 28.9478C41.1172 28.9555 41.1143 28.9623 41.1106 28.9681C41.1068 28.9739 41.102 28.9797 41.0964 28.9855C41.0926 28.9913 41.0879 28.9971 41.0822 29.0029C41.0784 29.0087 41.0737 29.0145 41.068 29.0203ZM41.0142 29.0493C41 29.0493 40.9886 29.0551 40.983 29.0608C40.9811 29.0666 40.9792 29.0715 40.9773 29.0753C40.9735 29.0792 40.9697 29.0831 40.966 29.0869C40.9641 29.0908 40.9612 29.0947 40.9575 29.0985C40.9537 29.1024 40.949 29.1053 40.9433 29.1072C40.9433 29.084 40.9688 29.029 41.017 29.0145C41.0397 29.0116 41.034 29.0464 41.0142 29.0493ZM40.8667 29.0782C40.8866 29.0898 40.9405 29.0464 40.9518 29.0232C40.9405 29.0869 40.8696 29.1246 40.8469 29.0956C40.8299 29.0782 40.8469 29.0666 40.8667 29.0782ZM40.8752 29.142C40.9036 29.1275 40.8951 29.1681 40.8752 29.1681C40.8554 29.1681 40.81 29.2232 40.8015 29.2319C40.8044 29.1884 40.8412 29.1565 40.8724 29.142H40.8752ZM40.6229 29.3014C40.6371 29.2377 40.7448 29.2087 40.776 29.2435C40.7165 29.2435 40.6569 29.2637 40.6229 29.3014ZM40.7363 29.1014C40.7392 29.1565 40.6399 29.2 40.6087 29.1478C40.6825 29.1594 40.7221 29.1159 40.7363 29.1014ZM40.6569 29.0406C40.6399 29.1188 40.5095 29.142 40.501 29.0493C40.5067 29.084 40.6484 29.0753 40.6569 29.0406ZM40.5464 29.1739C40.5265 29.2232 40.4528 29.2348 40.4358 29.2203C40.4273 29.2087 40.433 29.2 40.4557 29.1826C40.45 29.2058 40.5322 29.1942 40.5464 29.1739ZM40.4245 29.3565C40.4443 29.2927 40.5776 29.2811 40.6087 29.3188C40.5464 29.3101 40.4613 29.3246 40.4245 29.3565ZM40.1948 29.3478C40.2289 29.3014 40.3678 29.3014 40.3904 29.342C40.3753 29.3381 40.3593 29.3352 40.3423 29.3333C40.3252 29.3314 40.3082 29.3314 40.2912 29.3333C40.2761 29.3333 40.26 29.3343 40.243 29.3362C40.226 29.3401 40.21 29.3439 40.1948 29.3478ZM40.45 29.0927C40.4188 29.171 40.3309 29.1275 40.3167 29.113C40.2997 29.0956 40.3167 29.0753 40.3366 29.0956C40.3536 29.113 40.4415 29.1101 40.45 29.0927ZM40.3309 29.2174C40.3423 29.2493 40.2884 29.3159 40.226 29.2464C40.2459 29.2522 40.3139 29.2782 40.3309 29.2174ZM40.2714 29.1652C40.2657 29.2203 40.175 29.2522 40.124 29.1652C40.1835 29.2203 40.2629 29.1826 40.2714 29.1652ZM40.192 29.0493C40.192 29.1101 40.0474 29.142 40.0219 29.0145C40.0786 29.1101 40.1835 29.0637 40.192 29.0493ZM40.0673 29.1565C40.0673 29.2261 39.9255 29.2058 39.951 29.1217C39.9595 29.1507 40.0304 29.2 40.0673 29.1565ZM39.985 29.0348C39.9737 29.0927 39.8575 29.1014 39.8291 28.9768C39.8858 29.0666 39.9737 29.0522 39.985 29.0348ZM40.1466 29.2319C40.1438 29.2869 40.0474 29.3014 40.0474 29.2232C40.0587 29.2464 40.1069 29.2637 40.1466 29.2319ZM39.917 29.1391C39.9595 29.2319 39.7837 29.1826 39.8093 29.0985C39.8206 29.142 39.9283 29.1971 39.917 29.1391ZM39.8149 29.0232C39.8263 29.1159 39.676 29.0724 39.7015 28.9884C39.7072 29.0261 39.7781 29.0695 39.8149 29.0232Z" fill="white"/>
<path d="M40.467 27.2928C40.5039 27.3015 40.5323 27.2986 40.5408 27.3044C40.5238 27.3275 40.4075 27.2986 40.3905 27.2754C40.399 27.2696 40.4217 27.2841 40.467 27.2957V27.2928ZM40.674 27.3536C40.7109 27.371 40.7392 27.371 40.7477 27.3768C40.725 27.3971 40.6088 27.3449 40.5975 27.3188C40.606 27.3159 40.6315 27.3362 40.674 27.3565V27.3536ZM40.8838 27.4783C40.9178 27.5015 40.949 27.5102 40.9518 27.513C40.9263 27.5275 40.8214 27.4551 40.8158 27.4261C40.8243 27.4261 40.8441 27.4493 40.8838 27.4783ZM41.0539 27.6203C41.0766 27.6522 41.1049 27.6725 41.1078 27.6783C41.0794 27.6841 41 27.5826 41.0029 27.5536C41.0114 27.5536 41.0227 27.5855 41.0539 27.6203ZM41.1815 27.829C41.1985 27.8667 41.2212 27.887 41.224 27.8986C41.1957 27.8986 41.1361 27.8029 41.1503 27.7594C41.1588 27.7623 41.1588 27.7884 41.1815 27.829ZM41.2467 27.9971C41.2552 28.0348 41.275 28.0551 41.275 28.0638C41.2467 28.0551 41.2098 27.9594 41.2325 27.9188C41.2382 27.9246 41.2353 27.9478 41.2467 27.9942V27.9971Z" fill="#231F20"/>
<path fill-rule="evenodd" clip-rule="evenodd" d="M39.6023 29.1102C39.5947 29.1044 39.5881 29.0986 39.5824 29.0928C39.5749 29.087 39.5683 29.0812 39.5626 29.0754C39.5569 29.0677 39.5513 29.0609 39.5456 29.0551C39.5399 29.0474 39.5342 29.0406 39.5286 29.0348C39.5598 29.0551 39.5909 29.0783 39.6023 29.1102ZM39.4889 28.9682C39.4775 28.9595 39.469 28.9421 39.4605 28.9276C39.4464 28.916 39.4322 28.9044 39.4265 28.887C39.4341 28.8909 39.4416 28.8957 39.4492 28.9015C39.4549 28.9073 39.4605 28.9141 39.4662 28.9218C39.4719 28.9276 39.4766 28.9353 39.4804 28.945C39.4842 28.9527 39.4879 28.9604 39.4917 28.9682H39.4889ZM39.5059 28.9363C39.5116 28.9102 39.5031 28.8725 39.4634 28.8348C39.5031 28.8464 39.5371 28.9131 39.5059 28.9363ZM39.659 29.0001C39.676 29.0377 39.6136 29.0261 39.5824 28.9711C39.6165 29.003 39.6533 29.0059 39.659 29.0001ZM39.5938 29.0001C39.6165 29.0232 39.6335 29.0667 39.625 29.0928C39.6212 29.0851 39.6184 29.0774 39.6165 29.0696C39.6146 29.0619 39.6117 29.0542 39.608 29.0464C39.6061 29.0387 39.6042 29.031 39.6023 29.0232C39.6004 29.0155 39.5976 29.0078 39.5938 29.0001ZM39.5739 28.8377C39.5598 28.8841 39.4889 28.8522 39.4832 28.7827C39.5087 28.8232 39.5484 28.8464 39.5739 28.8377ZM39.727 28.9421C39.6958 28.9972 39.5909 28.8783 39.6136 28.8522C39.6391 28.9131 39.7015 28.9334 39.727 28.9421ZM39.6363 28.7508C39.6136 28.7914 39.5201 28.7624 39.5229 28.6493C39.5428 28.687 39.5881 28.7334 39.6363 28.7508ZM39.3443 28.7247C39.3726 28.7392 39.4237 28.829 39.4095 28.8696C39.401 28.8261 39.3528 28.7479 39.3443 28.7247ZM39.4123 28.6899C39.435 28.7073 39.4464 28.7566 39.4293 28.7798C39.4265 28.7624 39.4208 28.716 39.4123 28.6899ZM39.4974 28.6754C39.4832 28.7392 39.3812 28.6667 39.4208 28.5914C39.4294 28.6522 39.469 28.6957 39.4974 28.6754ZM39.3273 28.6928C39.3245 28.6609 39.3131 28.5943 39.3018 28.5653C39.3386 28.603 39.3358 28.6725 39.3273 28.6928ZM39.4265 28.5189C39.4067 28.5769 39.3443 28.5392 39.3528 28.4261C39.3641 28.458 39.4038 28.5131 39.4265 28.5189ZM39.333 28.5189C39.333 28.5798 39.2848 28.5363 39.2876 28.4493C39.3018 28.4609 39.2989 28.4725 39.3018 28.487C39.3074 28.5015 39.3103 28.5247 39.333 28.5189Z" fill="white"/>
<path d="M39.4152 27.7043L39.4322 27.7188C39.4775 27.6464 39.5342 27.5797 39.5966 27.5217C39.659 27.4638 39.7298 27.4116 39.8036 27.371C39.8773 27.3304 39.9566 27.2985 40.0389 27.2782C40.1211 27.258 40.2061 27.2464 40.2912 27.2464C40.4868 27.2464 40.6853 27.3014 40.861 27.4232C41.153 27.6232 41.3118 27.9565 41.3118 28.2927C41.3118 28.4956 41.2551 28.7014 41.1332 28.884C41.0878 28.9565 41.0311 29.0232 40.9688 29.0811C40.9064 29.1391 40.8355 29.1884 40.7618 29.229C40.6881 29.2724 40.6087 29.3014 40.5265 29.3246C40.4443 29.3449 40.3592 29.3565 40.2742 29.3565C40.1409 29.3565 40.0077 29.3275 39.8829 29.2753C39.7582 29.2232 39.6476 29.1449 39.5512 29.0493C39.4577 28.9507 39.3811 28.8348 39.3301 28.7101C39.2791 28.5826 39.2536 28.4464 39.2536 28.3101C39.2536 28.1072 39.3103 27.8985 39.4322 27.7159L39.4152 27.7043L39.3981 27.6927C39.2734 27.8811 39.2139 28.0956 39.2139 28.3101C39.2139 28.6609 39.3783 29.0058 39.6845 29.2145C39.8659 29.3391 40.0701 29.3971 40.2742 29.3971C40.6201 29.3971 40.9603 29.2261 41.1701 28.9101C41.2948 28.7217 41.3543 28.5043 41.3543 28.2927C41.3543 28.2029 41.3458 28.1159 41.3231 28.029C41.3033 27.942 41.2721 27.858 41.2296 27.7797C41.1899 27.7014 41.1389 27.629 41.0822 27.5623C41.0226 27.4956 40.9574 27.4377 40.8865 27.3884C40.8431 27.3575 40.7977 27.3304 40.7505 27.3072C40.7032 27.284 40.6541 27.2647 40.603 27.2493C40.5539 27.2338 40.5029 27.2222 40.4499 27.2145C40.3989 27.2067 40.3469 27.2029 40.294 27.2029C39.951 27.2029 39.6079 27.3739 39.3981 27.6927L39.4152 27.7043Z" fill="black"/>
<path d="M42.0745 26.9101C42.0575 26.5159 41.8902 26.1478 41.6067 25.8811C41.3232 25.6144 40.949 25.4753 40.5634 25.4898C40.1778 25.5072 39.8149 25.6811 39.557 25.971C39.2961 26.2608 39.16 26.6434 39.1742 27.0376C39.1912 27.4318 39.3613 27.7999 39.6448 28.0666C39.9283 28.3333 40.3026 28.4724 40.6881 28.4579C41.0709 28.4405 41.4338 28.2666 41.6946 27.9768C41.9554 27.6869 42.0915 27.3043 42.0745 26.9101Z" fill="white"/>
<path d="M42.0745 26.9101H42.1142C42.1057 26.7159 42.0631 26.5246 41.9837 26.3478C41.9044 26.171 41.7938 26.0086 41.6577 25.8753C41.5188 25.7391 41.36 25.6318 41.1814 25.5594C41.0057 25.4869 40.8157 25.4492 40.6258 25.4492H40.5606C40.3706 25.4579 40.1835 25.5043 40.0106 25.5855C39.8376 25.6637 39.6789 25.7768 39.5484 25.9188C39.4152 26.0579 39.3131 26.2231 39.2423 26.4028C39.1714 26.5855 39.1345 26.7768 39.1345 26.9739V27.0405C39.1402 27.2347 39.1856 27.426 39.2649 27.6028C39.3415 27.7797 39.4521 27.9391 39.591 28.0753C39.7271 28.2086 39.8886 28.3159 40.0673 28.3883C40.243 28.4608 40.4301 28.4985 40.6201 28.4985H40.6853C40.8781 28.4927 41.0652 28.4463 41.2381 28.3652C41.4111 28.2869 41.567 28.171 41.7002 28.0318C41.8307 27.8898 41.9356 27.7275 42.0064 27.5449C42.0773 27.3652 42.1142 27.171 42.1142 26.9768V26.913H42.0745L42.0348 26.9159V26.9797C42.0348 27.1623 42.0008 27.3449 41.9327 27.5159C41.8647 27.6869 41.7683 27.8434 41.6435 27.9768C41.5188 28.1101 41.3685 28.2173 41.2041 28.2956C41.0397 28.371 40.8639 28.4144 40.6825 28.4202H40.6201C40.4415 28.4202 40.2629 28.3855 40.0956 28.3159C39.9283 28.2492 39.7752 28.1478 39.6448 28.0202C39.5144 27.8927 39.4095 27.742 39.3358 27.5739C39.2621 27.4057 39.2196 27.2231 39.2111 27.0405V26.9768C39.2111 26.7912 39.2451 26.6086 39.3131 26.4376C39.3812 26.2666 39.4804 26.1101 39.6051 25.9768C39.7299 25.8434 39.8773 25.7362 40.0417 25.6608C40.2062 25.5855 40.3819 25.542 40.5634 25.5333H40.6258C40.8044 25.5333 40.983 25.5681 41.1502 25.6376C41.3175 25.7072 41.4706 25.8086 41.601 25.9362C41.7314 26.0637 41.8363 26.2144 41.91 26.3826C41.9866 26.5507 42.0263 26.7304 42.0348 26.9159H42.0745V26.9101Z" fill="#231F20"/>
<path d="M41.0595 27.2202L41.3628 27.0753L41.3288 27.0029L41.0226 27.1478M39.9453 26.6869L40.1693 26.9449L40.2288 26.8898L40.0048 26.6318" fill="#231F20"/>
<path d="M41.8959 27.6261C41.841 27.5971 41.7872 27.5633 41.7343 27.5246C41.6832 27.4879 41.635 27.4473 41.5897 27.4029C41.5443 27.3584 41.5018 27.3101 41.4621 27.258C41.4243 27.2058 41.3893 27.1517 41.3572 27.0956L41.2608 27.1536C41.3997 27.4058 41.6067 27.6029 41.8477 27.7275L41.8959 27.6261ZM40.1296 28.3449C40.2317 28.1333 40.2856 27.8985 40.2856 27.6609C40.2856 27.458 40.2459 27.2493 40.1608 27.0551L40.0616 27.1014C40.1381 27.2811 40.175 27.4724 40.175 27.6609C40.175 27.8811 40.124 28.0985 40.0304 28.2927L40.1296 28.3449Z" fill="#BDBFC1"/>
<path d="M41.4734 27.0696L41.377 27.1334L41.1701 27.1595C41.1625 27.1595 41.1549 27.1614 41.1474 27.1653C41.1417 27.1691 41.136 27.174 41.1304 27.1798C41.1266 27.1856 41.1237 27.1923 41.1219 27.2C41.12 27.2078 41.119 27.2155 41.119 27.2232C41.1209 27.231 41.1237 27.2377 41.1275 27.2435C41.1313 27.2513 41.136 27.257 41.1417 27.2609C41.1474 27.2667 41.154 27.2706 41.1615 27.2725C41.1672 27.2744 41.1738 27.2744 41.1814 27.2725L41.4167 27.2435L41.5358 27.1653C41.5414 27.1614 41.5462 27.1566 41.5499 27.1508C41.5556 27.145 41.5585 27.1382 41.5585 27.1305C41.5603 27.1227 41.5613 27.115 41.5613 27.1073C41.5594 27.0996 41.5566 27.0928 41.5528 27.087C41.549 27.0812 41.5433 27.0764 41.5358 27.0725C41.5301 27.0667 41.5235 27.0638 41.5159 27.0638C41.5084 27.0619 41.5018 27.0609 41.4961 27.0609C41.4885 27.0628 41.481 27.0657 41.4734 27.0696ZM41.5925 27.2174L41.4989 27.2899L41.292 27.3305C41.2863 27.3305 41.2797 27.3324 41.2721 27.3363C41.2664 27.3401 41.2617 27.3459 41.2579 27.3537C41.2542 27.3595 41.2513 27.3662 41.2494 27.374C41.2475 27.3817 41.2475 27.3894 41.2494 27.3971C41.2513 27.4029 41.2542 27.4097 41.2579 27.4174C41.2617 27.4232 41.2664 27.4281 41.2721 27.4319C41.2797 27.4377 41.2872 27.4406 41.2948 27.4406C41.3005 27.4426 41.3071 27.4426 41.3146 27.4406L41.5471 27.3971L41.6605 27.3102C41.6662 27.3044 41.6709 27.2986 41.6747 27.2928C41.6766 27.287 41.6785 27.2802 41.6804 27.2725C41.6823 27.2648 41.6823 27.257 41.6804 27.2493C41.6785 27.2435 41.6756 27.2368 41.6719 27.229C41.6662 27.2232 41.6605 27.2184 41.6548 27.2145C41.6492 27.2126 41.6426 27.2107 41.635 27.2087C41.6274 27.2068 41.6199 27.2068 41.6123 27.2087C41.6066 27.2107 41.601 27.2136 41.5953 27.2174H41.5925ZM41.6804 27.3537L41.5925 27.4319L41.3912 27.4899C41.3836 27.4918 41.377 27.4947 41.3713 27.4986C41.3657 27.5044 41.3609 27.5102 41.3572 27.516C41.3534 27.5237 41.3515 27.5314 41.3515 27.5392C41.3496 27.5469 41.3496 27.5537 41.3515 27.5595C41.3553 27.5672 41.3591 27.574 41.3628 27.5798C41.3685 27.5856 41.3742 27.5904 41.3798 27.5942C41.3855 27.5981 41.3921 27.601 41.3997 27.6029C41.4072 27.6029 41.4148 27.602 41.4224 27.6L41.6492 27.5363L41.7541 27.4406C41.7597 27.4348 41.7645 27.429 41.7682 27.4232C41.772 27.4155 41.7739 27.4078 41.7739 27.4C41.7739 27.3923 41.773 27.3856 41.7711 27.3798C41.7692 27.372 41.7654 27.3653 41.7597 27.3595C41.756 27.3537 41.7503 27.3488 41.7427 27.345C41.7352 27.343 41.7286 27.3411 41.7229 27.3392C41.7153 27.3392 41.7078 27.3401 41.7002 27.3421C41.6926 27.344 41.686 27.3479 41.6804 27.3537Z" fill="#939598"/>
<path d="M41.808 27.4406L41.7258 27.5247L41.5302 27.6C41.516 27.6058 41.5047 27.6174 41.499 27.6319C41.4933 27.6435 41.4905 27.6609 41.4962 27.6754C41.5018 27.6899 41.5132 27.7015 41.5274 27.7073C41.5387 27.7131 41.5557 27.7131 41.5699 27.7073L41.791 27.6232L41.8874 27.5189C41.8931 27.5131 41.8969 27.5073 41.8988 27.5015C41.9025 27.4938 41.9044 27.486 41.9044 27.4783C41.9044 27.4706 41.9025 27.4638 41.8988 27.458C41.8969 27.4503 41.8931 27.4435 41.8874 27.4377C41.8836 27.4339 41.878 27.43 41.8704 27.4261C41.8628 27.4242 41.8553 27.4232 41.8477 27.4232C41.8421 27.4232 41.8354 27.4242 41.8279 27.4261C41.8203 27.43 41.8137 27.4339 41.808 27.4377V27.4406ZM41.8534 27.6435L41.6549 27.7508C41.6474 27.7546 41.6417 27.7595 41.6379 27.7653C41.6323 27.7711 41.6285 27.7769 41.6266 27.7827C41.6247 27.7904 41.6238 27.7981 41.6238 27.8058C41.6238 27.8136 41.6256 27.8213 41.6294 27.829C41.6332 27.8348 41.6379 27.8406 41.6436 27.8464C41.6493 27.8503 41.6559 27.8532 41.6634 27.8551C41.6691 27.859 41.6757 27.8599 41.6833 27.858C41.6909 27.858 41.6984 27.8561 41.706 27.8522L41.9044 27.7479C41.9101 27.744 41.9158 27.7392 41.9214 27.7334C41.9252 27.7276 41.929 27.7208 41.9328 27.7131C41.9347 27.7054 41.9356 27.6976 41.9356 27.6899C41.9337 27.6822 41.9318 27.6754 41.9299 27.6696C41.9262 27.6619 41.9214 27.6561 41.9158 27.6522C41.9101 27.6464 41.9035 27.6426 41.8959 27.6406C41.8884 27.6387 41.8808 27.6377 41.8732 27.6377C41.8657 27.6377 41.8591 27.6397 41.8534 27.6435ZM40.0673 27.5131L40.1921 27.4899H40.2062L40.399 27.3479C40.4047 27.344 40.4094 27.3382 40.4132 27.3305C40.417 27.3247 40.4198 27.3179 40.4217 27.3102C40.4217 27.3025 40.4217 27.2957 40.4217 27.2899C40.4198 27.2822 40.417 27.2754 40.4132 27.2696C40.4094 27.2619 40.4037 27.2561 40.3962 27.2522C40.3905 27.2484 40.3839 27.2455 40.3763 27.2435C40.3688 27.2435 40.3622 27.2445 40.3565 27.2464C40.3489 27.2464 40.3414 27.2493 40.3338 27.2551L40.1609 27.3798L40.0503 27.4C40.0427 27.4 40.0361 27.402 40.0305 27.4058C40.0248 27.4116 40.0191 27.4174 40.0134 27.4232C40.0097 27.429 40.0068 27.4358 40.0049 27.4435C40.0031 27.4493 40.0031 27.4561 40.0049 27.4638C40.0068 27.4715 40.0097 27.4783 40.0134 27.4841C40.0172 27.4899 40.022 27.4957 40.0276 27.5015C40.0333 27.5054 40.0399 27.5083 40.0475 27.5102C40.055 27.5121 40.0616 27.5121 40.0673 27.5102V27.5131ZM40.0191 27.3653L40.1524 27.3305L40.3395 27.1769C40.3451 27.1711 40.3499 27.1653 40.3537 27.1595C40.3555 27.1517 40.3574 27.144 40.3593 27.1363C40.3593 27.1285 40.3584 27.1208 40.3565 27.1131C40.3546 27.1073 40.3508 27.1015 40.3451 27.0957C40.3414 27.0899 40.3357 27.0851 40.3281 27.0812C40.3225 27.0773 40.3159 27.0744 40.3083 27.0725C40.3007 27.0725 40.2932 27.0735 40.2856 27.0754C40.2781 27.0793 40.2714 27.0831 40.2658 27.087L40.1013 27.2261L39.9908 27.2522C39.9851 27.2542 39.9785 27.258 39.9709 27.2638C39.9653 27.2677 39.9605 27.2725 39.9567 27.2783C39.953 27.286 39.9501 27.2938 39.9482 27.3015C39.9482 27.3073 39.9492 27.3141 39.9511 27.3218C39.953 27.3295 39.9558 27.3363 39.9596 27.3421C39.9634 27.3479 39.969 27.3527 39.9766 27.3566C39.9823 27.3604 39.9889 27.3633 39.9964 27.3653C40.004 27.3672 40.0106 27.3672 40.0163 27.3653H40.0191ZM40.0843 27.687L40.2119 27.6725H40.2232L40.4245 27.545C40.4302 27.5411 40.4359 27.5363 40.4415 27.5305C40.4453 27.5247 40.4482 27.5179 40.45 27.5102C40.4519 27.5025 40.4519 27.4947 40.45 27.487C40.45 27.4793 40.4482 27.4725 40.4444 27.4667C40.4406 27.4609 40.4349 27.4551 40.4274 27.4493C40.4217 27.4455 40.4151 27.4426 40.4075 27.4406C40.4018 27.4387 40.3952 27.4387 40.3877 27.4406C40.3801 27.4406 40.3726 27.4426 40.365 27.4464L40.1864 27.5595L40.073 27.574C40.0673 27.574 40.0607 27.5759 40.0531 27.5798C40.0475 27.5836 40.0418 27.5885 40.0361 27.5942C40.0323 27.6 40.0295 27.6058 40.0276 27.6116C40.0238 27.6194 40.0229 27.6271 40.0248 27.6348C40.0248 27.6426 40.0267 27.6493 40.0305 27.6551C40.0342 27.6628 40.039 27.6686 40.0446 27.6725C40.0503 27.6783 40.0569 27.6822 40.0645 27.6841C40.072 27.686 40.0796 27.687 40.0872 27.687H40.0843ZM40.0645 27.8812L40.1892 27.8783H40.2034L40.4132 27.7653C40.4189 27.7614 40.4245 27.7566 40.4302 27.7508C40.4359 27.745 40.4397 27.7392 40.4415 27.7334C40.4434 27.7256 40.4444 27.7179 40.4444 27.7102C40.4425 27.7025 40.4406 27.6947 40.4387 27.687C40.4349 27.6812 40.4302 27.6754 40.4245 27.6696C40.4189 27.6657 40.4122 27.6628 40.4047 27.6609C40.3971 27.6571 40.3896 27.6561 40.382 27.658C40.3744 27.658 40.3678 27.6599 40.3622 27.6638L40.1722 27.7624L40.0616 27.7682C40.0541 27.7682 40.0465 27.7691 40.039 27.7711C40.0333 27.7749 40.0276 27.7798 40.022 27.7856C40.0163 27.7894 40.0125 27.7952 40.0106 27.8029C40.0087 27.8107 40.0078 27.8184 40.0078 27.8261C40.0078 27.858 40.0333 27.8812 40.0645 27.8812ZM40.0446 28.0377L40.1722 28.0464H40.1835L40.4019 27.9537C40.4075 27.9498 40.4132 27.945 40.4189 27.9392C40.4245 27.9353 40.4283 27.9295 40.4302 27.9218C40.4321 27.9141 40.433 27.9073 40.433 27.9015C40.433 27.8938 40.4321 27.886 40.4302 27.8783C40.4264 27.8725 40.4226 27.8667 40.4189 27.8609C40.4132 27.8551 40.4066 27.8513 40.399 27.8493C40.3933 27.8455 40.3867 27.8435 40.3792 27.8435C40.3716 27.8435 40.3641 27.8455 40.3565 27.8493L40.1637 27.9334L40.0531 27.9276C40.022 27.9276 39.9936 27.9479 39.9936 27.9798C39.9936 28.0116 40.0163 28.0377 40.0475 28.0377H40.0446ZM40.0305 28.1971L40.1524 28.2087H40.1665L40.3877 28.1218C40.3933 28.1199 40.399 28.116 40.4047 28.1102C40.4104 28.1044 40.4151 28.0986 40.4189 28.0928C40.4208 28.0851 40.4217 28.0773 40.4217 28.0696C40.4217 28.0619 40.4208 28.0551 40.4189 28.0493C40.4151 28.0416 40.4104 28.0348 40.4047 28.029C40.4009 28.0232 40.3952 28.0194 40.3877 28.0174C40.3801 28.0136 40.3726 28.0116 40.365 28.0116C40.3593 28.0116 40.3527 28.0136 40.3451 28.0174L40.1495 28.0957L40.039 28.087C40.0314 28.087 40.0238 28.088 40.0163 28.0899C40.0087 28.0918 40.0021 28.0957 39.9964 28.1015C39.9908 28.1054 39.987 28.1102 39.9851 28.116C39.9813 28.1237 39.9785 28.1314 39.9766 28.1392C39.9766 28.1469 39.9775 28.1537 39.9794 28.1595C39.9832 28.1672 39.987 28.174 39.9908 28.1798C39.9964 28.1856 40.0021 28.1904 40.0078 28.1942C40.0153 28.1981 40.0229 28.2 40.0305 28.2V28.1971ZM40.1722 28.3711L40.2147 28.3624H40.2204L40.3763 28.3044C40.3839 28.3025 40.3896 28.2986 40.3933 28.2928C40.399 28.2889 40.4037 28.2831 40.4075 28.2754C40.4113 28.2696 40.4132 28.2628 40.4132 28.2551C40.4132 28.2474 40.4122 28.2397 40.4104 28.2319C40.4085 28.2242 40.4047 28.2174 40.399 28.2116C40.3952 28.2078 40.3896 28.2039 40.382 28.2C40.3763 28.1962 40.3697 28.1942 40.3622 28.1942C40.3546 28.1942 40.347 28.1952 40.3395 28.1971L40.1921 28.2493L40.1552 28.258C40.1476 28.258 40.141 28.2599 40.1354 28.2638C40.1278 28.2677 40.1221 28.2725 40.1183 28.2783C40.1146 28.286 40.1117 28.2928 40.1098 28.2986C40.1079 28.3063 40.107 28.3141 40.107 28.3218C40.1127 28.3537 40.141 28.3769 40.1722 28.3711Z" fill="#939598"/>
<path d="M41.4621 27.0551L41.3657 27.1189L41.1587 27.145C41.1512 27.1469 41.1446 27.1498 41.1389 27.1536C41.1313 27.1556 41.1257 27.1604 41.1219 27.1681C41.1162 27.1739 41.1124 27.1797 41.1105 27.1855C41.1087 27.1933 41.1087 27.201 41.1105 27.2087C41.1105 27.2165 41.1124 27.2232 41.1162 27.229C41.12 27.2367 41.1247 27.2425 41.1304 27.2464C41.1361 27.2522 41.1427 27.2561 41.1502 27.258C41.1578 27.2599 41.1654 27.2599 41.1729 27.258L41.4054 27.229L41.5245 27.1536C41.5301 27.1479 41.5349 27.1421 41.5386 27.1363C41.5443 27.1305 41.5471 27.1237 41.5471 27.116C41.549 27.1082 41.55 27.1015 41.55 27.0957C41.5481 27.0879 41.5453 27.0802 41.5415 27.0725C41.5377 27.0667 41.533 27.0619 41.5273 27.058C41.5216 27.0541 41.515 27.0512 41.5075 27.0493C41.4999 27.0474 41.4923 27.0474 41.4848 27.0493C41.4772 27.0493 41.4706 27.0512 41.4649 27.0551H41.4621ZM41.5783 27.2029L41.4848 27.2754L41.2807 27.316C41.2731 27.316 41.2665 27.3179 41.2608 27.3218C41.2532 27.3276 41.2476 27.3334 41.2438 27.3392C41.24 27.345 41.2372 27.3517 41.2353 27.3594C41.2353 27.3672 41.2362 27.3749 41.2381 27.3826C41.2381 27.3884 41.241 27.3952 41.2466 27.4029C41.2504 27.4087 41.2551 27.4136 41.2608 27.4174C41.2665 27.4213 41.2731 27.4242 41.2807 27.4261C41.2882 27.428 41.2958 27.428 41.3033 27.4261L41.533 27.3826L41.6464 27.2957C41.652 27.2918 41.6568 27.286 41.6605 27.2783C41.6643 27.2725 41.6672 27.2657 41.6691 27.258C41.6691 27.2503 41.6681 27.2435 41.6662 27.2377C41.6643 27.23 41.6615 27.2232 41.6577 27.2174C41.6539 27.2116 41.6492 27.2068 41.6435 27.2029C41.636 27.1991 41.6284 27.1962 41.6209 27.1942C41.6152 27.1923 41.6086 27.1923 41.601 27.1942C41.5935 27.1962 41.5868 27.1991 41.5812 27.2029H41.5783ZM41.6662 27.3392L41.5783 27.4174L41.377 27.4754C41.3695 27.4773 41.3629 27.4812 41.3572 27.487C41.3515 27.4908 41.3468 27.4957 41.343 27.5015C41.3392 27.5092 41.3374 27.5169 41.3374 27.5247C41.3374 27.5324 41.3383 27.5392 41.3402 27.545C41.3421 27.5527 41.3449 27.5594 41.3487 27.5652C41.3544 27.571 41.36 27.5759 41.3657 27.5797C41.3733 27.5836 41.3799 27.5855 41.3855 27.5855C41.3931 27.5875 41.4007 27.5875 41.4082 27.5855L41.635 27.5189L41.7428 27.4232C41.7465 27.4193 41.7503 27.4136 41.7541 27.4058C41.7579 27.4 41.7598 27.3933 41.7598 27.3855C41.7598 27.3778 41.7588 27.3701 41.7569 27.3623C41.755 27.3546 41.7513 27.3479 41.7456 27.3421C41.7418 27.3363 41.7361 27.3324 41.7286 27.3305C41.7229 27.3266 41.7163 27.3247 41.7087 27.3247C41.7012 27.3247 41.6946 27.3256 41.6889 27.3276C41.6813 27.3295 41.6747 27.3334 41.6691 27.3392H41.6662Z" fill="#F9A13A"/>
<path d="M41.7967 27.4261L41.7144 27.5102L41.5188 27.5855C41.5047 27.5913 41.4933 27.6029 41.4876 27.6174C41.482 27.6319 41.482 27.6464 41.4876 27.6609C41.4905 27.6754 41.5018 27.687 41.516 27.6928C41.5302 27.6986 41.5443 27.6986 41.5585 27.6957L41.7797 27.6087L41.8789 27.5044C41.8827 27.4986 41.8864 27.4928 41.8902 27.487C41.8921 27.4792 41.8931 27.4715 41.8931 27.4638C41.8931 27.4561 41.8921 27.4493 41.8902 27.4435C41.8864 27.4358 41.8827 27.429 41.8789 27.4232C41.8732 27.4193 41.8666 27.4155 41.859 27.4116C41.8534 27.4097 41.8467 27.4087 41.8392 27.4087C41.8316 27.4087 41.8241 27.4097 41.8165 27.4116C41.8108 27.4155 41.8052 27.4193 41.7995 27.4232L41.7967 27.4261ZM41.8364 27.629L41.6379 27.7362C41.6322 27.7401 41.6266 27.7449 41.6209 27.7507C41.6171 27.7565 41.6143 27.7633 41.6124 27.771C41.6086 27.7768 41.6077 27.7836 41.6095 27.7913C41.6095 27.799 41.6114 27.8068 41.6152 27.8145C41.619 27.8203 41.6237 27.8261 41.6294 27.8319C41.6351 27.8358 41.6417 27.8387 41.6492 27.8406C41.6568 27.8445 41.6644 27.8454 41.6719 27.8435C41.6795 27.8435 41.6861 27.8416 41.6918 27.8377L41.8902 27.7333C41.8978 27.7295 41.9034 27.7246 41.9072 27.7189C41.9129 27.7131 41.9167 27.7063 41.9186 27.6986C41.9205 27.6908 41.9214 27.6831 41.9214 27.6754C41.9214 27.6676 41.9195 27.6609 41.9157 27.6551C41.912 27.6474 41.9072 27.6416 41.9016 27.6377C41.8959 27.6319 41.8893 27.628 41.8817 27.6261C41.8742 27.6242 41.8666 27.6232 41.859 27.6232C41.8534 27.6232 41.8467 27.6251 41.8392 27.629H41.8364ZM40.0531 27.4986L40.1778 27.4783H40.1892L40.3848 27.3362C40.3905 27.3304 40.3952 27.3247 40.399 27.3189C40.4028 27.3131 40.4047 27.3063 40.4047 27.2986C40.4065 27.2908 40.4065 27.2831 40.4047 27.2754C40.4047 27.2676 40.4018 27.2609 40.3961 27.2551C40.3924 27.2493 40.3876 27.2445 40.382 27.2406C40.3763 27.2367 40.3697 27.2338 40.3621 27.2319C40.3546 27.2319 40.347 27.2319 40.3394 27.2319C40.3319 27.2338 40.3253 27.2367 40.3196 27.2406L40.1467 27.3652L40.0361 27.3855C40.0285 27.3875 40.021 27.3904 40.0134 27.3942C40.0077 27.3981 40.003 27.4029 39.9992 27.4087C39.9936 27.4145 39.9898 27.4213 39.9879 27.429C39.9879 27.4367 39.9879 27.4445 39.9879 27.4522C39.9898 27.4599 39.9926 27.4667 39.9964 27.4725C40.0002 27.4783 40.0049 27.4831 40.0106 27.487C40.0162 27.4928 40.0229 27.4957 40.0304 27.4957C40.038 27.4976 40.0455 27.4986 40.0531 27.4986ZM40.0049 27.3507L40.1382 27.316L40.3224 27.1594C40.3281 27.1556 40.3328 27.1498 40.3366 27.142C40.3404 27.1362 40.3423 27.1295 40.3423 27.1218C40.3442 27.114 40.3442 27.1063 40.3423 27.0986C40.3385 27.0908 40.3347 27.0841 40.3309 27.0783C40.3253 27.0725 40.3196 27.0676 40.3139 27.0638C40.3064 27.0599 40.2988 27.058 40.2913 27.058C40.2837 27.058 40.2771 27.0589 40.2714 27.0609C40.2638 27.0628 40.2572 27.0667 40.2516 27.0725L40.0871 27.2087L39.9766 27.2377C39.969 27.2396 39.9624 27.2425 39.9567 27.2464C39.951 27.2522 39.9463 27.258 39.9425 27.2638C39.9388 27.2696 39.9359 27.2763 39.934 27.2841C39.9321 27.2918 39.9321 27.2995 39.934 27.3073C39.9359 27.315 39.9397 27.3218 39.9454 27.3275C39.9492 27.3333 39.9539 27.3382 39.9596 27.342C39.9652 27.3459 39.9718 27.3488 39.9794 27.3507C39.987 27.3507 39.9945 27.3498 40.0021 27.3478L40.0049 27.3507ZM40.073 27.6725L40.1977 27.6609H40.2119L40.4132 27.5333C40.4188 27.5275 40.4236 27.5218 40.4273 27.516C40.433 27.5102 40.4368 27.5034 40.4387 27.4957C40.4387 27.4879 40.4387 27.4812 40.4387 27.4754C40.4368 27.4676 40.4339 27.4599 40.4302 27.4522C40.4264 27.4464 40.4217 27.4416 40.416 27.4377C40.4103 27.4319 40.4037 27.428 40.3961 27.4261C40.3886 27.4242 40.381 27.4242 40.3735 27.4261C40.3659 27.428 40.3593 27.43 40.3536 27.4319L40.175 27.5449L40.0616 27.5594C40.0541 27.5594 40.0474 27.5614 40.0418 27.5652C40.0342 27.5691 40.0285 27.5739 40.0248 27.5797C40.0191 27.5855 40.0153 27.5923 40.0134 27.6C40.0115 27.6058 40.0106 27.6126 40.0106 27.6203C40.0125 27.628 40.0153 27.6358 40.0191 27.6435C40.0229 27.6493 40.0276 27.6551 40.0333 27.6609C40.0389 27.6647 40.0455 27.6676 40.0531 27.6696C40.0588 27.6715 40.0654 27.6725 40.073 27.6725ZM40.0559 27.8667L40.1807 27.8638H40.1949L40.4047 27.7507C40.4122 27.7469 40.4179 27.742 40.4217 27.7362C40.4273 27.7304 40.4311 27.7237 40.433 27.716C40.4349 27.7102 40.4358 27.7034 40.4358 27.6957C40.4358 27.6879 40.4339 27.6802 40.4302 27.6725C40.4264 27.6667 40.4217 27.6609 40.416 27.6551C40.4103 27.6512 40.4037 27.6474 40.3961 27.6435C40.3905 27.6416 40.3839 27.6416 40.3763 27.6435C40.3687 27.6435 40.3612 27.6454 40.3536 27.6493L40.1665 27.7478L40.0531 27.7536C40.0455 27.7536 40.0389 27.7546 40.0333 27.7565C40.0257 27.7604 40.0191 27.7652 40.0134 27.771C40.0096 27.7768 40.0059 27.7826 40.0021 27.7884C40.0002 27.7961 39.9992 27.8039 39.9992 27.8116C39.9992 27.8435 40.0248 27.8667 40.0559 27.8667ZM40.0361 28.0232L40.1637 28.0319H40.175L40.3905 27.9391C40.398 27.9353 40.4047 27.9304 40.4103 27.9246C40.4141 27.9189 40.4179 27.9131 40.4217 27.9073C40.4236 27.8995 40.4245 27.8918 40.4245 27.8841C40.4245 27.8783 40.4236 27.8715 40.4217 27.8638C40.4179 27.8561 40.4132 27.8503 40.4075 27.8464C40.4037 27.8406 40.398 27.8367 40.3905 27.8348C40.3848 27.8309 40.3782 27.829 40.3706 27.829C40.3631 27.829 40.3555 27.8309 40.348 27.8348L40.1552 27.9189L40.0418 27.9102C40.0361 27.9102 40.0295 27.9121 40.0219 27.916C40.0144 27.9179 40.0077 27.9218 40.0021 27.9275C39.9964 27.9314 39.9926 27.9372 39.9907 27.9449C39.987 27.9507 39.9851 27.9575 39.9851 27.9652C39.9851 27.9971 40.0077 28.0232 40.0389 28.0261L40.0361 28.0232ZM40.0191 28.1826L40.1467 28.1942H40.158L40.3791 28.1073C40.3848 28.1034 40.3905 28.0995 40.3961 28.0957C40.4018 28.0899 40.4065 28.0831 40.4103 28.0754C40.4122 28.0696 40.4132 28.0628 40.4132 28.0551C40.4132 28.0474 40.4122 28.0396 40.4103 28.0319C40.4065 28.0261 40.4028 28.0203 40.399 28.0145C40.3933 28.0087 40.3867 28.0039 40.3791 28C40.3735 27.9981 40.3669 27.9971 40.3593 27.9971C40.3517 27.9971 40.3442 27.9981 40.3366 28L40.141 28.0783L40.0304 28.0696C40.0229 28.0696 40.0153 28.0705 40.0077 28.0725C40.0002 28.0744 39.9936 28.0783 39.9879 28.0841C39.9822 28.0879 39.9785 28.0937 39.9766 28.1015C39.9728 28.1073 39.9699 28.114 39.9681 28.1218C39.9681 28.1295 39.969 28.1372 39.9709 28.1449C39.9747 28.1507 39.9784 28.1565 39.9822 28.1623C39.9879 28.1681 39.9936 28.173 39.9992 28.1768C40.0049 28.1807 40.0115 28.1836 40.0191 28.1855V28.1826ZM40.1382 28.3536L40.209 28.3391H40.2119L40.3678 28.2899C40.3735 28.2879 40.3791 28.285 40.3848 28.2812C40.3905 28.2754 40.3952 28.2696 40.399 28.2638C40.4028 28.2561 40.4047 28.2483 40.4047 28.2406C40.4065 28.2329 40.4056 28.2261 40.4018 28.2203C40.3933 28.1913 40.3621 28.1739 40.3338 28.1826L40.1864 28.229L40.1183 28.2435C40.1126 28.2435 40.106 28.2464 40.0985 28.2522C40.0928 28.2561 40.0881 28.2609 40.0843 28.2667C40.0786 28.2725 40.0758 28.2792 40.0758 28.287C40.0739 28.2947 40.0739 28.3024 40.0758 28.3102C40.0758 28.3179 40.0777 28.3246 40.0815 28.3304C40.0871 28.3362 40.0928 28.342 40.0985 28.3478C40.1041 28.3517 40.1108 28.3546 40.1183 28.3565C40.1259 28.3565 40.1334 28.3565 40.141 28.3565L40.1382 28.3536Z" fill="#F9A13A"/>
<path d="M42.3552 25.4406C42.3495 24.9565 42.1539 24.4986 41.8109 24.1652C41.4678 23.8348 41.0085 23.6609 40.5379 23.6812C40.0673 23.7015 39.625 23.9159 39.3103 24.2754C38.9985 24.6377 38.8397 25.1101 38.8766 25.5913C38.9078 26.0551 39.1176 26.4841 39.4549 26.7913C39.7923 27.0986 40.2346 27.2609 40.6882 27.2406C41.139 27.2203 41.567 27.0203 41.8789 26.6841C42.1879 26.3478 42.3609 25.9015 42.3552 25.4406Z" fill="white"/>
<path d="M42.3551 25.4406H42.3948C42.3863 25.2058 42.3324 24.9797 42.2389 24.7652C42.1453 24.5536 42.0121 24.3623 41.8476 24.2029C41.6832 24.0406 41.4904 23.913 41.2806 23.8261C41.0708 23.7391 40.844 23.6927 40.6172 23.6927C40.5917 23.6927 40.5662 23.6927 40.5378 23.6956C40.311 23.7043 40.0899 23.7594 39.8801 23.8551C39.6732 23.9507 39.486 24.087 39.3301 24.2551C39.1714 24.4232 39.0494 24.6203 38.9644 24.8348C38.8793 25.0522 38.834 25.2812 38.834 25.513V25.5942C38.8453 25.8261 38.8964 26.0551 38.9927 26.2667C39.0863 26.4783 39.2167 26.6696 39.3812 26.8319C39.5456 26.9913 39.7384 27.1188 39.9482 27.2058C40.1608 27.2927 40.3848 27.3362 40.6116 27.3391H40.6909C40.9177 27.3275 41.1417 27.2725 41.3487 27.1768C41.5556 27.0812 41.7427 26.9478 41.9015 26.7797C42.0574 26.6116 42.1822 26.4145 42.2672 26.1971C42.3523 25.9826 42.3948 25.7507 42.3948 25.5188V25.4406H42.358L42.3183 25.4435V25.5188C42.3183 25.742 42.2757 25.9623 42.1935 26.1681C42.1141 26.3739 41.9951 26.5623 41.8448 26.7217C41.6917 26.8841 41.5131 27.0145 41.3147 27.1043C41.119 27.1971 40.9036 27.2493 40.6881 27.258H40.6116C40.3961 27.258 40.1806 27.2145 39.9793 27.1333C39.7781 27.0493 39.5938 26.9275 39.435 26.7739C39.2791 26.6203 39.1515 26.4377 39.0636 26.2348C38.9729 26.0319 38.9219 25.8145 38.9134 25.5913V25.5159C38.9134 25.2927 38.9559 25.0725 39.0381 24.8667C39.1175 24.6609 39.2366 24.4725 39.3868 24.313C39.5371 24.1507 39.7157 24.0232 39.9141 23.9304C40.1126 23.8406 40.3252 23.7884 40.5435 23.7797H40.6172C40.8355 23.7797 41.051 23.8203 41.2523 23.9043C41.4536 23.9884 41.6379 24.1101 41.7966 24.2638C41.9525 24.4174 42.0801 24.6 42.168 24.8029C42.2587 25.0058 42.3098 25.2232 42.3183 25.4464H42.358L42.3551 25.4406Z" fill="#231F20"/>
<path d="M40.209 25.771L40.7505 26.0145L41.1531 25.6319L40.8781 25.0145L40.2855 25.1247L40.209 25.771Z" fill="#231F20"/>
<path d="M40.209 25.7711L40.1637 25.8725L40.7704 26.145L41.2835 25.658L40.9405 24.8899L40.1892 25.0319L40.09 25.8377L40.1637 25.8725L40.209 25.7711L40.3168 25.7855L40.382 25.2203L40.8129 25.1392L41.0227 25.6058L40.7279 25.8841L40.2516 25.6667L40.209 25.7711ZM41.7938 25.6783L42.1284 26.1276L42.2474 26.0812C42.272 26.0116 42.2919 25.9401 42.307 25.8667C42.3221 25.7933 42.3325 25.7198 42.3382 25.6464C42.3438 25.573 42.3457 25.4986 42.3438 25.4232C42.3401 25.3498 42.3325 25.2764 42.3212 25.2029L42.0632 25.1247L41.7938 25.6783Z" fill="#231F20"/>
<path d="M41.7967 25.6783L41.7541 25.7102L42.1142 26.1913L42.2871 26.1189L42.2956 26.0957C42.3608 25.9073 42.3949 25.7044 42.3949 25.4899V25.4145C42.3949 25.3952 42.3939 25.3769 42.392 25.3595C42.3901 25.3401 42.3883 25.3218 42.3864 25.3044C42.3864 25.2851 42.3845 25.2667 42.3807 25.2493C42.3788 25.23 42.3769 25.2116 42.375 25.1942L42.3694 25.1624L42.0377 25.0609L41.7371 25.6841L41.757 25.7131L41.7967 25.6812L41.8449 25.7044L42.0915 25.1884L42.3098 25.2551L42.324 25.2058L42.273 25.2145C42.2843 25.2812 42.2928 25.3508 42.2956 25.4203V25.4957C42.2956 25.6928 42.2616 25.887 42.2021 26.0638L42.2503 26.0812L42.2304 26.0348L42.1482 26.0696L41.8364 25.6493L41.7967 25.6812V25.6783ZM40.5181 26.9276L40.7222 27.2725C40.7864 27.2686 40.8507 27.2609 40.915 27.2493C40.9792 27.2377 41.0416 27.2223 41.1021 27.2029C41.1645 27.1836 41.2259 27.1604 41.2864 27.1334C41.3468 27.1083 41.4045 27.0793 41.4593 27.0464L41.5132 26.8464L40.9433 26.5508L40.5181 26.9276Z" fill="#231F20"/>
<path d="M40.518 26.9276L40.4755 26.9537L40.6938 27.3276H40.7249C40.7911 27.3218 40.8572 27.3131 40.9234 27.3015C40.9895 27.2899 41.0548 27.2735 41.119 27.2522C41.1833 27.2329 41.2456 27.2097 41.3061 27.1826C41.3685 27.1556 41.428 27.1256 41.4847 27.0928L41.5046 27.0812L41.5755 26.8203L40.9376 26.4899L40.4528 26.9189L40.4755 26.9537L40.518 26.9276L40.5492 26.9682L40.9517 26.6145L41.4507 26.8725L41.411 27.0319L41.4592 27.0464L41.4365 27C41.3817 27.0329 41.325 27.0619 41.2664 27.087C41.2078 27.1121 41.1483 27.1334 41.0878 27.1508C41.0273 27.1701 40.9669 27.1855 40.9064 27.1971C40.844 27.2087 40.7816 27.2165 40.7193 27.2203L40.7221 27.2696L40.7646 27.2435L40.5605 26.8986L40.518 26.9276ZM39.3188 26.0406L39.177 26.5131C39.2847 26.6696 39.4123 26.8087 39.5597 26.9218L39.8461 26.6899L39.7695 26.0377L39.3188 26.0406Z" fill="#231F20"/>
<path d="M39.3188 26.0405L39.2706 26.0261L39.1204 26.5246L39.1345 26.5449C39.2423 26.7072 39.3755 26.8492 39.5286 26.9652L39.5598 26.9913L39.8972 26.713L39.8121 25.9855L39.2791 25.9913L39.2706 26.029L39.3188 26.0434V26.0956L39.7242 26.0898L39.7894 26.6695L39.5286 26.884L39.5598 26.9246L39.591 26.8811C39.5551 26.8541 39.5201 26.8251 39.4861 26.7942C39.4521 26.7633 39.4199 26.7314 39.3897 26.6985C39.3576 26.6657 39.3273 26.6309 39.299 26.5942C39.2706 26.5594 39.2432 26.5227 39.2168 26.484L39.1771 26.5159L39.2253 26.5304L39.367 26.0579L39.3188 26.0405Z" fill="#231F20"/>
<path d="M39.6903 26.1536L40.2346 25.8145L40.1807 25.7246L39.6364 26.0667M41.0199 26.6464L40.7421 25.6841L40.6428 25.7159L40.9207 26.6754M41.9328 25.629L41 25.5275L40.9915 25.6058L41.9243 25.7101M42.1057 26.0232L41.4026 26.858L41.4593 26.9101L42.1624 26.0783M40.589 26.9101L39.7441 26.629L39.7214 26.7072L40.5663 26.9855M39.3897 26.1101L39.0637 25.1275L38.99 25.1536L39.316 26.1362M42.1312 25.2058L41.6946 24.4203L41.6266 24.4609L42.0632 25.2464" fill="#231F20"/>
<path d="M40.0247 21.713C38.8057 21.7768 37.975 22.7739 38.026 23.9536C38.0374 24.2347 38.1026 24.5101 38.2188 24.7652C38.3351 25.0202 38.4995 25.2492 38.7008 25.4376C38.9021 25.6289 39.1402 25.7768 39.3982 25.8724C39.6562 25.9681 39.9284 26.0116 40.2034 26C40.4784 25.9884 40.7477 25.9188 40.9972 25.8029C41.2438 25.684 41.4678 25.5159 41.6549 25.3101C41.8392 25.1014 41.9838 24.8608 42.0773 24.5971C42.1709 24.3333 42.2134 24.0521 42.2021 23.771C42.1539 22.5913 41.1786 21.655 40.0247 21.713Z" fill="url(#paint0_radial_150_998)"/>
<path d="M40.0247 21.713V21.7043C38.834 21.7652 38.0118 22.713 38.0118 23.855C38.0118 24.1362 38.0629 24.4174 38.1678 24.6782C38.2727 24.942 38.4286 25.1797 38.6242 25.3797C38.8198 25.5797 39.0495 25.7391 39.3046 25.8463C39.5598 25.9565 39.8348 26.0116 40.1098 26.0116C40.141 26.0116 40.1722 26.0116 40.2005 26.0116C40.4698 26 40.7335 25.9333 40.9773 25.8203C41.2211 25.7072 41.4423 25.5478 41.6294 25.3507C41.8136 25.1536 41.9611 24.9217 42.0603 24.6666C42.1624 24.4116 42.2134 24.1391 42.2134 23.8666V23.771C42.1652 22.6203 41.2381 21.7014 40.1268 21.7014C40.0928 21.7014 40.0559 21.7014 40.0219 21.7043V21.7275C40.0559 21.7275 40.0928 21.7246 40.1268 21.7246C41.2268 21.7246 42.1453 22.6347 42.1935 23.7739C42.1935 23.8058 42.1935 23.8376 42.1935 23.8666C42.1935 24.1391 42.1425 24.4087 42.0433 24.6608C41.9441 24.913 41.7995 25.142 41.6152 25.3391C41.4309 25.5362 41.2126 25.6927 40.9688 25.8058C40.7278 25.9159 40.467 25.9797 40.2005 25.9913C40.1722 25.9913 40.141 25.9942 40.1126 25.9942C39.8461 25.9942 39.5825 25.942 39.3358 25.8405C39.0892 25.7391 38.8652 25.5884 38.6724 25.4029C38.4825 25.2145 38.3265 24.9884 38.2188 24.742C38.1082 24.4956 38.0459 24.229 38.0345 23.9565C38.0345 23.9217 38.0345 23.8898 38.0345 23.8579C38.0345 22.7246 38.8482 21.7884 40.0247 21.7275V21.7188V21.713Z" fill="#231F20"/>
<path d="M38.2982 22.9682V22.9276C38.2471 22.9305 38.2159 22.9392 38.1734 22.9421L38.1507 22.9479L38.1422 22.9682C38.0345 23.2348 37.9636 23.5247 37.9636 23.8319V23.8899C37.9891 24.7508 38.4314 25.429 39.0891 25.7769L39.1118 25.7856L39.1288 25.774C39.5484 25.5015 39.8489 24.9885 39.8489 24.4464V24.3856C39.8404 24.1914 39.7979 24.0001 39.7185 23.8232C39.6391 23.6464 39.5286 23.4841 39.3925 23.3508C39.2536 23.2145 39.0948 23.1102 38.9162 23.0348C38.7404 22.9624 38.5533 22.9247 38.3605 22.9247H38.2982V22.9653L38.301 23.0059H38.3605C38.542 23.0059 38.7206 23.0435 38.8878 23.1102C39.0551 23.1798 39.2082 23.2812 39.3386 23.4088C39.469 23.5363 39.5739 23.687 39.6476 23.8551C39.7214 24.0232 39.7639 24.2059 39.7724 24.3885V24.4464C39.7724 24.9566 39.4832 25.4493 39.0891 25.7073L39.109 25.7392L39.1288 25.7044C38.4938 25.3711 38.0714 24.7218 38.043 23.8899V23.8319C38.043 23.5363 38.111 23.2551 38.2159 22.9972L38.1791 22.9827L38.1848 23.0203C38.233 23.0145 38.2585 23.0088 38.301 23.0059V22.9653L38.2982 22.9682ZM40.9716 21.8899L40.9489 21.858C40.5775 22.1363 40.3564 22.5798 40.3564 23.0783V23.1508C40.3649 23.345 40.4074 23.5363 40.4868 23.7131C40.5662 23.8899 40.6768 24.0493 40.8128 24.1856C40.9518 24.3189 41.1134 24.4261 41.2891 24.4986C41.4649 24.5711 41.6549 24.6088 41.8448 24.6088H41.9072C41.9667 24.6088 42.0262 24.6001 42.083 24.5914L42.1056 24.5856L42.1113 24.5653C42.1935 24.3334 42.2389 24.087 42.2389 23.8261C42.2389 23.7943 42.2389 23.7624 42.236 23.7305C42.1992 22.8899 41.6832 22.1885 40.9858 21.858L40.9659 21.8464L40.9461 21.8609L40.9688 21.8928L40.9518 21.9305C41.6265 22.2493 42.1226 22.9276 42.1567 23.7363C42.1567 23.7653 42.1595 23.7972 42.1595 23.8261C42.1595 24.0754 42.1141 24.316 42.0348 24.5363L42.0716 24.5508L42.0659 24.5131C42.0527 24.515 42.0385 24.517 42.0234 24.5189C42.0102 24.5208 41.997 24.5228 41.9837 24.5247C41.9705 24.5266 41.9563 24.5276 41.9412 24.5276C41.928 24.5295 41.9147 24.5305 41.9015 24.5305H41.8391C41.6577 24.5305 41.4791 24.4957 41.3118 24.4261C41.1446 24.3566 40.9943 24.2551 40.8639 24.1276C40.7335 24.0001 40.6286 23.8493 40.552 23.6812C40.4783 23.5131 40.4358 23.3305 40.4301 23.1479V23.0812C40.4301 22.6059 40.6399 22.1885 40.9915 21.9247L40.9688 21.8928L40.9716 21.8899ZM39.3415 21.8609L40.827 26.003L40.8979 25.9769L39.4152 21.8348" fill="#231F20"/>
<path d="M38.2245 24.7826L39.781 24.113L39.7526 24.0377L38.1962 24.7101M40.5181 23.6985L42.0462 23.0406L42.015 22.9652L40.4897 23.6232" fill="#231F20"/>
<path d="M39.4975 25.9159L39.5088 25.8782C39.2962 25.8145 39.0949 25.7159 38.9163 25.5884C38.7348 25.4579 38.5732 25.2985 38.4428 25.1188C38.3096 24.9391 38.2075 24.7362 38.1366 24.5217C38.0686 24.3072 38.0317 24.084 38.0317 23.8579C38.0317 23.5797 38.0856 23.3072 38.1877 23.0492C38.2926 22.7942 38.4457 22.5623 38.6356 22.3652C38.8284 22.1681 39.0552 22.0145 39.3047 21.9072C39.557 21.8 39.8235 21.7478 40.0957 21.7449C40.365 21.7449 40.6343 21.8 40.8838 21.9072C41.1361 22.0116 41.3629 22.1681 41.5557 22.3652C41.7457 22.5594 41.8988 22.7913 42.0037 23.0492C42.1057 23.3043 42.1596 23.5797 42.1596 23.855C42.1596 24.1333 42.1057 24.4087 42.0037 24.6637C41.8988 24.9188 41.7485 25.1536 41.5557 25.3478C41.3658 25.5449 41.1361 25.7014 40.8866 25.8058C40.6372 25.913 40.3678 25.9681 40.0957 25.9681C39.9029 25.9681 39.7044 25.9391 39.5088 25.8782L39.4975 25.9159L39.4861 25.9536C39.6903 26.0145 39.8972 26.0463 40.0957 26.0463C40.3253 26.0463 40.5521 26.0087 40.7704 25.9333C40.9887 25.8608 41.1928 25.7507 41.3771 25.6116C41.5586 25.4695 41.7201 25.3014 41.8506 25.1072C41.981 24.9159 42.083 24.7043 42.1482 24.4782C42.2276 24.2029 42.2531 23.9159 42.2248 23.6289C42.1964 23.342 42.1114 23.0666 41.9781 22.8145C41.8449 22.5594 41.6634 22.3362 41.4451 22.1565C41.2268 21.9768 40.9745 21.8405 40.7052 21.7594C40.6561 21.7439 40.606 21.7304 40.5549 21.7188C40.5058 21.7072 40.4557 21.6975 40.4047 21.6898C40.3537 21.6821 40.3017 21.6763 40.2488 21.6724C40.1977 21.6686 40.1467 21.6666 40.0957 21.6666C39.866 21.6666 39.6392 21.7043 39.4209 21.7797C39.2055 21.8521 38.9985 21.9623 38.8171 22.1014C38.6328 22.2434 38.474 22.4116 38.3408 22.6029C38.2104 22.7971 38.1111 23.0087 38.0459 23.2318C37.9864 23.4405 37.9552 23.6521 37.9552 23.855C37.9552 24.0898 37.9921 24.3217 38.0658 24.5449C38.1366 24.7681 38.2444 24.9768 38.3805 25.1652C38.5194 25.3536 38.6838 25.5159 38.8709 25.6492C39.0609 25.7855 39.2678 25.8869 39.4861 25.9536L39.4975 25.9159Z" fill="#231F20"/>
</g>
</g>
<defs>
<radialGradient id="paint0_radial_150_998" cx="0" cy="0" r="1" gradientUnits="userSpaceOnUse" gradientTransform="translate(40.1061 23.872) scale(2.10962 2.15687)">
<stop stop-color="#E99F46"/>
<stop offset="1" stop-color="#E58E1C"/>
</radialGradient>
<clipPath id="clip0_150_998">
<rect width="44" height="20" fill="white" transform="translate(8 20)"/>
</clipPath>
</defs>

</g>
</svg>