<svg width="60" height="60" viewBox="0 0 60 60" fill="none" xmlns="http://www.w3.org/2000/svg">
<defs>
  <clipPath id="circle-clip">
    <circle cx="30.0" cy="30.0" r="30.0"/>
  </clipPath>
</defs>
<g clip-path="url(#circle-clip)">

<g clip-path="url(#clip0_168_309)">
<rect width="60" height="60" fill="white"/>
<g clip-path="url(#clip1_168_309)">
<path d="M33.0689 46.1229C33.2585 46.1486 33.431 46.1829 33.4654 46.3371C33.5021 46.4268 33.515 46.5243 33.5029 46.6204C33.4909 46.7164 33.4542 46.8078 33.3965 46.8857C33.1206 47.2629 32.7068 47.28 32.293 47.3829C32.2557 47.3829 32.2194 47.3708 32.1896 47.3486C32.0516 47.2286 32.1379 46.44 32.293 46.3886C32.5689 46.2857 32.8447 46.2171 33.0861 46.1486L33.0689 46.1229ZM26.2585 48.9257C26.5344 49.2686 26.6379 49.6457 26.8275 49.9886C26.8965 50.0914 26.8447 50.16 26.7241 50.16L26.6551 50.1771C26.3792 50.2114 26.0516 50.4514 25.8792 50.2971C25.7068 50.16 25.9827 49.8343 26.0172 49.5771C26.0443 49.344 26.1271 49.1207 26.2585 48.9257ZM44.8792 30.96C44.8792 30.8743 44.8792 30.7886 44.9137 30.72C45.3448 30.0343 45.4654 29.2457 45.6896 28.4914C45.9827 27.6 46.3275 26.6914 46.5516 25.7486C46.6551 25.1314 46.8965 24.5486 47.2068 24C47.4137 23.6743 47.3103 23.2457 47.4999 22.9029C47.7068 22.5429 47.7585 22.1143 48.0344 21.7886C48.0735 21.7392 48.0975 21.6797 48.1034 21.6171C48.1896 20.4857 48.8792 19.6114 49.3103 18.6343V18.6C49.362 17.9829 49.8792 17.5714 50.0689 17.0057C50.1172 16.8751 50.1872 16.7534 50.2758 16.6457C50.3447 16.56 50.3792 16.3886 50.5689 16.4743C50.6348 16.5042 50.6863 16.5588 50.7121 16.6262C50.7379 16.6935 50.736 16.7683 50.7068 16.8343C50.5516 17.5543 50.431 18.2571 50.2068 18.96C49.8447 20.1086 49.5689 21.2743 49.1723 22.3886C48.9482 23.16 48.5689 23.8629 48.2758 24.5829C48.0344 25.2171 47.8275 25.8686 47.5344 26.4686C47.2758 27.0171 47.0861 27.6 46.7068 28.0629C46.431 28.4057 46.3275 28.8514 46.1379 29.2286C45.8095 29.8661 45.3851 30.45 44.8792 30.96Z" fill="#DA2D25"/>
<path d="M15.2932 23.7514C15.8277 23.4 16.3449 23.5029 16.8104 23.4686C17.3277 23.4343 17.7759 23.1429 18.2932 23.2286C18.4311 23.2286 18.4311 23.0914 18.4483 22.9886C18.4828 22.5257 18.6208 22.0629 18.6035 21.5829C18.6183 21.2801 18.7335 20.9908 18.9311 20.76C19.207 20.3486 19.4656 19.9029 19.8621 19.5771C20.138 19.3714 20.207 18.9943 20.5173 18.7886C21.0345 18.4629 21.5863 18.1886 22.1552 18C22.3621 17.9143 22.4483 18 22.4483 18.1714C22.4828 18.4457 22.4828 18.72 22.4483 18.9771C22.3277 19.92 22.2414 20.8629 22.0345 21.8057V21.8743C21.9483 22.4057 21.9828 22.4229 22.4828 22.3029C23.9483 21.9257 25.4483 21.5829 26.9656 21.36C27.3449 21.3257 27.7242 21.1886 28.0345 20.9657C28.3277 20.7429 28.7242 20.8286 29.069 20.7943C29.8966 20.6743 29.9311 20.5714 30.138 19.9543C30.5345 18.8571 30.8794 17.7257 31.1552 16.5943C31.3449 15.6857 31.8104 14.8629 31.9828 13.9371L32.0863 13.5943C32.1897 12.0514 33.2587 11.3657 34.569 10.92C35.0173 10.7829 35.4483 10.6286 35.8794 10.44C36.0863 10.3371 36.1725 10.4057 36.138 10.6114C36.1268 10.8588 36.0558 11.0999 35.9311 11.3143C35.6725 11.7086 35.5345 12.1714 35.5345 12.6343C35.5345 12.7371 35.5345 12.84 35.5001 12.9429C34.8621 14.1771 34.569 15.5486 34.0345 16.8343C33.6725 17.6743 33.4828 18.5829 33.207 19.4743C33.1725 19.6457 33.2242 19.6971 33.3794 19.68C33.4828 19.68 33.5518 19.68 33.6552 19.6457C34.2242 19.44 34.8104 19.3029 35.4139 19.2343C36.069 19.1143 36.7242 18.96 37.3621 18.7543C38.5345 18.3943 39.707 17.9829 40.9483 17.8286C41.7587 17.7086 42.5518 17.4171 43.3621 17.16C43.8794 16.9886 44.4828 16.9543 45.0173 16.7486C45.4656 16.5771 45.7587 16.8 45.7414 17.2629C45.7486 17.4936 45.6932 17.722 45.5809 17.9241C45.4687 18.1262 45.3038 18.2946 45.1035 18.4114C44.5863 18.7029 44.1725 19.1314 43.6035 19.3543C43.3149 19.4935 43.015 19.6082 42.707 19.6971C42.3276 19.7657 42.0345 20.0743 41.6035 20.1429C40.6208 20.2629 39.707 20.7429 38.7414 20.9143C37.7587 21.0857 36.8449 21.6514 35.8104 21.5143C35.7821 21.507 35.7525 21.507 35.7242 21.5143C34.7242 21.9771 33.6035 21.8571 32.5863 22.2514C32.4805 22.2861 32.3831 22.342 32.3 22.4157C32.2169 22.4895 32.15 22.5794 32.1035 22.68C31.7932 23.28 31.6725 23.9314 31.4139 24.5657C31.069 25.4229 30.8449 26.3314 30.5518 27.24C30.5001 27.4629 30.3794 27.6514 30.3104 27.8743C29.8794 29.1943 29.3449 30.4457 29.0345 31.8171C28.8277 32.7257 28.3794 33.6 28.207 34.5429C27.9483 35.8971 27.4656 37.2171 27.638 38.6571C27.6491 38.8195 27.6952 38.9776 27.7733 39.1206C27.8514 39.2635 27.9596 39.3881 28.0906 39.4857C28.2215 39.5834 28.3721 39.6518 28.532 39.6863C28.6919 39.7208 28.8575 39.7206 29.0173 39.6857C29.1208 39.6686 29.2414 39.6171 29.3104 39.5314C29.638 39.0857 30.0518 38.7429 30.3621 38.2971C31.138 37.2 31.138 35.9143 31.2759 34.6971C31.4139 33.7029 31.6552 32.7429 32.0173 31.8343C32.2414 31.1314 32.5518 30.4457 32.9311 29.7943C33.2587 29.2971 33.5173 28.7657 33.7414 28.2171C33.9139 27.84 34.2587 27.5657 34.5001 27.2229C35.0518 26.4171 35.6897 25.68 36.3966 25.0114C37.0046 24.4401 37.812 24.1261 38.6485 24.1357C39.4849 24.1453 40.2849 24.4778 40.8794 25.0629C41.707 25.8343 41.6035 26.7771 41.5863 27.72C41.5863 28.2857 41.4139 28.8514 41.1208 29.3486C40.7587 29.9486 40.2587 30.0857 39.569 29.8286C38.8104 29.5371 38.4828 28.9029 38.2242 28.2C38.1952 28.0881 38.2049 27.9697 38.2518 27.864C38.2987 27.7582 38.3801 27.6713 38.4828 27.6171C38.5183 27.5808 38.5615 27.5527 38.6091 27.5349C38.6568 27.5172 38.7079 27.5101 38.7587 27.5143C38.8077 27.5213 38.8546 27.5387 38.8963 27.5653C38.9379 27.5919 38.9733 27.6271 39.0001 27.6686C39.1725 27.8571 39.9139 27.84 40.1552 27.6857C40.2072 27.6517 40.2489 27.6043 40.2759 27.5486C40.5863 26.8457 39.9311 25.7314 39.138 25.6629C39.069 25.6629 39.0001 25.6286 38.9483 25.6629C38.6035 25.8686 38.1725 26.04 37.9828 26.3486C37.6725 26.8629 37.1552 27.2057 36.8621 27.7543C36.4828 28.4914 36.0001 29.1771 35.6897 29.9657C35.6552 30.0686 35.638 30.2057 35.5518 30.2743C35.1552 30.5314 35.1725 30.9771 34.9828 31.3371C34.5345 32.1429 34.4139 33.0514 33.9828 33.8743C33.9151 34.0002 33.8909 34.1448 33.9139 34.2857C33.9483 34.3886 33.9483 34.4914 33.9139 34.5943C33.638 35.1086 33.7242 35.6743 33.569 36.2057C33.5365 36.3641 33.5365 36.5273 33.569 36.6857C33.6035 37.1143 33.7759 37.5257 33.7414 37.9543C33.7422 38.0211 33.7581 38.087 33.7879 38.1469C33.8177 38.2068 33.8607 38.2593 33.9137 38.3004C33.9667 38.3416 34.0283 38.3704 34.094 38.3846C34.1597 38.3989 34.2277 38.3983 34.2932 38.3829C34.3794 38.3657 34.4656 38.3143 34.5173 38.2457C35.207 37.6629 35.6725 36.9257 36.1725 36.1886C36.6208 35.5543 36.9656 34.8514 37.207 34.0971C37.5518 33.12 38.0345 32.2114 38.3621 31.2514C38.4133 31.1046 38.5052 30.9751 38.6272 30.878C38.7493 30.7809 38.8965 30.7202 39.0518 30.7029C39.3966 30.6686 39.7414 30.6171 40.0863 30.6171C40.2317 30.6249 40.3695 30.6847 40.474 30.7855C40.5786 30.8864 40.643 31.0214 40.6552 31.1657C40.6552 31.2514 40.6552 31.3371 40.6208 31.44C40.1725 32.4514 40.0518 33.5486 39.6897 34.5943C39.4311 35.3486 39.5173 36.1714 39.6035 36.96C39.6208 37.3029 39.8794 37.3371 40.1897 37.2514C41.2242 36.96 41.6035 36.0857 42.0001 35.2457C42.0527 35.1135 42.1286 34.9916 42.2242 34.8857C42.3098 34.8215 42.3804 34.7397 42.4311 34.6457C42.7759 33.72 43.2932 32.8629 43.2932 31.8C43.3104 31.0286 43.4311 30.2571 43.638 29.52C43.8104 28.7657 43.8621 28.0114 44.0518 27.2743C44.2414 26.4514 44.3621 25.5943 44.6552 24.7886C44.9483 24.0343 45.2587 23.28 45.3449 22.4571C45.3966 22.08 45.7414 21.84 45.7932 21.4286C45.8966 20.3657 46.4311 19.44 46.9139 18.5143C47.1552 18.0686 47.2587 17.6057 47.4311 17.16C47.7414 16.4229 48.2932 15.8229 48.707 15.12C48.8449 14.9143 48.9656 14.6743 49.0173 14.4343C49.069 14.1257 49.3621 14.0057 49.5345 13.8171C49.9828 13.2686 49.9828 13.2857 50.569 13.68C50.8276 13.8686 51.0173 14.1257 51.1552 14.4171C51.4311 14.88 51.6208 15.3771 51.7414 15.9086C51.8104 16.4229 51.8104 16.9371 51.7414 17.4343C51.569 18.6343 51.1897 19.7657 50.9483 20.9314C50.7506 21.8837 50.4137 22.802 49.9483 23.6571C49.6725 24.2057 49.4311 24.7886 49.2759 25.3714C49.1552 25.7657 48.9828 26.1429 48.7587 26.4857C48.1725 27.2914 47.9311 28.2686 47.3966 29.0914C47.0518 29.6057 46.8794 30.2057 46.5345 30.72L45.6208 32.0571C45.357 32.5085 45.1265 32.9783 44.9311 33.4629C44.8638 33.6494 44.8402 33.8487 44.8621 34.0457C44.8621 34.5086 45.1208 34.9029 45.3794 35.28C45.638 35.6743 46.0863 35.6229 46.5001 35.5029C46.8449 35.3657 47.1725 35.1257 47.3966 34.8343L47.9139 34.2686C48.6208 33.5314 49.1725 32.6571 49.5518 31.7143C49.7932 31.0286 50.138 30.36 50.2759 29.64L50.3794 29.3829C50.4259 29.2843 50.5028 29.2029 50.5989 29.1505C50.6949 29.0982 50.8052 29.0775 50.9139 29.0914C51.0189 29.1082 51.114 29.163 51.1808 29.2453C51.2476 29.3276 51.2815 29.4315 51.2759 29.5371C51.3449 30.2743 51.3621 31.0286 51.1035 31.7143C50.8449 32.4171 50.5345 33.0857 50.138 33.7371C49.9311 34.08 49.6725 34.3543 49.3794 34.5943C49.0518 34.8343 48.8966 35.2629 48.5863 35.5029C47.7242 36.2057 46.7759 36.84 45.5863 36.7714C44.8966 36.7371 44.2414 36.4286 43.9656 35.6743C43.8799 35.4853 43.782 35.3021 43.6725 35.1257C43.2759 35.6571 42.8966 36.2229 42.569 36.8229C42.0518 37.8 41.2242 38.2629 40.1897 38.5029C39.4483 38.6743 38.8104 38.4514 38.207 38.0914C37.8966 37.8857 37.8449 37.5429 37.6897 37.2343C37.5974 37.01 37.5169 36.7811 37.4483 36.5486C37.3096 36.6207 37.2045 36.7437 37.1552 36.8914C36.9656 37.4571 36.569 37.8857 36.207 38.3143C35.6897 38.9657 35.0001 39.4629 34.2414 39.7886C33.6208 40.0114 32.4311 39.6 32.0173 39.0514L31.6552 38.5029C31.207 39.2571 30.707 40.0114 29.9656 40.44C28.9483 41.0057 27.8449 41.2286 26.7587 40.5257C26.3449 40.2514 26.1552 39.7714 25.9483 39.3257C25.8966 39.2229 25.8966 39.0343 25.7587 39.0343C25.6208 39.0343 25.5518 39.1886 25.5001 39.2914C25.0292 40.5093 24.1282 41.5149 22.9656 42.12C22.3277 42.4286 21.6208 42.5486 20.9139 42.4629C20.2759 42.3771 19.6552 41.6914 19.5863 41.0571C19.5345 40.6286 19.4139 40.2171 19.3794 39.7886C19.3104 38.7257 19.4483 37.6629 19.7587 36.6514C20.0199 35.8687 20.2159 35.066 20.3449 34.2514C20.8277 33.6343 20.707 32.7771 21.1035 32.1429C21.569 31.3714 21.7414 30.4971 22.1208 29.7086C22.1668 29.6052 22.2246 29.5074 22.2932 29.4171C22.5518 29.1257 22.7242 29.1086 22.9828 29.4171C23.3621 29.8457 23.5863 30.3771 23.6208 30.9429C23.6208 31.4571 23.6725 32.0057 23.3794 32.52C23.1983 32.8245 23.1254 33.1808 23.1725 33.5314C23.1841 33.6139 23.1778 33.6979 23.154 33.7777C23.1302 33.8576 23.0895 33.9314 23.0345 33.9943C22.8621 34.2343 22.7414 34.5086 22.7242 34.8C22.519 35.6989 22.2304 36.5769 21.8621 37.4229C21.5518 38.1086 21.4311 38.88 21.5173 39.6514C21.5518 39.8229 21.5345 39.9943 21.5001 40.1657C21.4329 40.3429 21.4306 40.538 21.4937 40.7167C21.5567 40.8953 21.6811 41.0462 21.8449 41.1429C22.1552 41.3486 22.4139 41.1943 22.638 41.0229C23.1141 40.7279 23.5106 40.3218 23.7932 39.84C24.4828 38.52 25.1208 37.2 25.4656 35.7257C25.6552 34.9714 25.9483 34.2171 26.1035 33.4286C26.3449 32.2286 26.8277 31.08 27.207 29.8971C27.569 28.7314 27.8621 27.5829 28.1897 26.4171C28.4656 25.44 28.707 24.4629 29.0518 23.5029C29.1208 23.3314 29.2242 23.0571 29.1035 22.9714C29.0045 22.9125 28.8913 22.8814 28.7759 22.8814C28.6606 22.8814 28.5473 22.9125 28.4483 22.9714C28.0345 23.1771 27.5345 22.9714 27.1035 23.1429C25.9828 23.5886 24.7759 23.4343 23.6208 23.6229C23.1035 23.7429 22.5863 23.7943 22.069 23.8457C21.8621 23.8457 21.8104 23.9486 21.7759 24.1371C21.6035 24.7886 21.4311 25.4571 21.2932 26.1086C21.138 26.88 20.7414 27.6 20.8449 28.4057C20.8449 28.4571 20.8449 28.5257 20.8104 28.5771C20.2932 29.1943 20.1897 29.9486 20.0345 30.6686C19.7587 31.9371 19.1725 33.1029 18.7759 34.3371C18.5732 35.0007 18.2834 35.6347 17.9139 36.2229C17.707 36.5314 17.569 36.8743 17.4656 37.2514C17.3794 37.6457 17.2587 38.04 16.8966 38.3143C16.8008 38.4003 16.7244 38.5054 16.6725 38.6229L15.3621 40.9543C15.2935 41.0618 15.1986 41.1502 15.0863 41.2114C14.92 41.3313 14.7794 41.4828 14.6725 41.6571C14.3104 42.1543 13.8966 42.6 13.4311 43.0286C13.3277 43.1143 13.1897 43.1829 13.1208 43.3029C13.0572 43.4384 12.9611 43.5562 12.8408 43.6459C12.7205 43.7357 12.5797 43.7945 12.4311 43.8171C12.3488 43.8195 12.2697 43.8498 12.207 43.9029C11.6897 44.52 10.9656 44.4857 10.2932 44.5371C9.84489 44.5714 9.37938 44.6571 8.9311 44.5029C8.81471 44.4839 8.70374 44.4405 8.60561 44.3755C8.50748 44.3104 8.42447 44.2253 8.36214 44.1257C8.34358 44.0794 8.314 44.0382 8.27593 44.0057C7.46558 43.5257 7.44834 42.6686 7.27593 41.88C7.17248 41.4171 7.10352 40.92 7.03455 40.44C6.99966 40.329 6.99373 40.211 7.01731 40.0971C7.32765 39.3771 7.27593 38.64 7.32765 37.8686C7.37938 37.6457 7.46558 37.4057 7.58627 37.2C7.84489 36.5829 7.79317 35.8971 8.01731 35.2629L8.4311 34.2343C8.67248 33.4629 8.70696 32.6229 9.12076 31.9371C9.50007 31.2514 9.41386 30.4286 9.84489 29.76C9.98282 29.5543 9.91386 29.28 9.98282 29.04L10.8104 26.0057C10.9311 25.5771 11.0518 25.1314 10.9311 24.6686C10.8794 24.4114 11.069 24.1714 11.1035 23.9314C11.1725 23.3657 10.9828 22.8514 10.8794 22.32C10.7759 21.9086 10.0863 21.8057 9.67248 22.1486C9.25869 22.4914 8.75869 22.7657 8.37938 23.1257C8.01731 23.4686 7.55179 23.88 7.29317 24.4114C7.12076 24.7543 6.91386 25.0457 6.67248 25.3371C6.32765 25.68 6.05179 26.0914 5.87938 26.5543C5.65524 27.24 5.20696 27.8571 5.03455 28.5771C4.74933 29.5928 4.7553 30.6675 5.05179 31.68C5.2242 32.16 5.638 32.4171 6.05179 32.6914C6.17248 32.76 6.36214 32.7943 6.31041 33.0171C6.27593 33.24 6.17248 33.4457 5.9311 33.4971C5.44834 33.6343 4.9311 33.6857 4.4311 33.6343C4.10106 33.5778 3.79123 33.4378 3.5315 33.2276C3.27178 33.0174 3.07093 32.7442 2.94834 32.4343C2.60352 31.6971 2.51731 30.8743 2.68972 30.0686C2.86214 29.1943 3.20696 28.4057 3.46558 27.5657C3.56903 27.2229 3.81041 26.9829 3.98283 26.7086C4.4311 25.8514 5.06903 25.1143 5.50007 24.24C5.60327 24.0436 5.74379 23.8689 5.91386 23.7257C6.65524 23.0743 7.24145 22.2686 8.03455 21.6686C8.77593 21.0686 9.68972 20.6914 10.638 20.5543C10.9483 20.52 11.2414 20.3829 11.5518 20.3829C12.2759 20.3314 13.0173 20.9486 13.3449 21.5829C13.6897 22.2 13.5863 22.8686 13.6897 23.52C13.8621 24.5829 13.5518 25.5943 13.4139 26.6057C13.3104 27.4457 12.9483 28.2171 12.7414 29.04C12.569 29.7257 12.3621 30.4114 12.1208 31.0629C11.8621 31.7143 11.7932 32.4343 11.569 33.0686C11.3621 33.7029 11.2587 34.4229 10.9483 35.04C10.8543 35.2255 10.8126 35.4328 10.8277 35.64C10.8621 36.0857 10.5001 36.3771 10.4311 36.8057C10.3621 37.2686 10.1897 37.7657 10.138 38.2114C10.0518 39.12 9.89662 40.0457 10.0173 40.9886L10.0863 41.6057C10.1208 42.3943 10.9656 42.8571 11.707 42.6686C12.3794 42.4971 12.5518 41.8971 12.9656 41.52C13.5863 40.9714 14.0001 40.2514 14.1725 39.4457C14.2587 39.1371 14.5345 38.9657 14.6552 38.6914C15.069 37.7143 15.5173 36.7714 15.7587 35.7257C15.8277 35.52 15.8966 35.3143 16.0001 35.1257C16.2957 34.5763 16.4885 33.978 16.569 33.36C16.6035 33.1543 16.6725 32.9314 16.7587 32.7429C17.2759 31.5257 17.4656 30.2229 17.638 28.92C17.638 28.7829 17.6897 28.6457 17.7759 28.5257C17.8307 28.4495 17.8662 28.3613 17.8794 28.2686C17.8794 27.36 18.2587 26.4686 18.1208 25.5257C18.1061 25.1409 18.1351 24.7556 18.207 24.3771C18.2242 24.1714 18.207 24.0343 17.9483 24.12C17.7349 24.1814 17.5057 24.1568 17.3104 24.0514C17.2466 24.0123 17.175 23.9875 17.1006 23.9786C17.0262 23.9697 16.9507 23.977 16.8794 24C16.3449 24.24 15.9139 23.8286 15.3104 23.7771L15.2932 23.7514ZM44.8794 30.9771C45.3794 30.4629 45.8104 29.8629 46.138 29.2286C46.3449 28.8514 46.4311 28.4057 46.707 28.0629C47.0863 27.6 47.2759 27.0171 47.5345 26.4857C47.8276 25.8686 48.0518 25.2171 48.2759 24.5829C48.569 23.8457 48.9483 23.16 49.1897 22.4057C49.569 21.2743 49.8449 20.1086 50.2242 18.9771C50.4311 18.2571 50.569 17.5543 50.707 16.8343C50.731 16.7703 50.7302 16.6997 50.7047 16.6363C50.6792 16.5729 50.6308 16.5212 50.569 16.4914C50.3966 16.3886 50.3449 16.56 50.2759 16.6457C50.1873 16.7534 50.1174 16.8751 50.069 17.0057C49.8794 17.5714 49.3621 17.9657 49.3276 18.6L49.3104 18.6343C48.8794 19.6114 48.1897 20.4857 48.1035 21.6C48.1035 21.6686 48.069 21.7371 48.0345 21.7714C47.7587 22.1143 47.6897 22.5429 47.5173 22.9029C47.3104 23.2457 47.4311 23.6743 47.207 24C46.8794 24.5486 46.6552 25.1314 46.5345 25.7486C46.3276 26.6914 45.9828 27.6 45.6897 28.4914C45.4656 29.2457 45.3449 30.0343 44.9139 30.72C44.8888 30.7975 44.8771 30.8786 44.8794 30.96V30.9771ZM41.1208 45.6514C40.6725 46.0971 40.2587 46.5771 39.8621 47.0743C39.6208 47.3657 39.4311 47.3829 39.1725 47.1257C38.8966 46.8686 38.6035 46.6629 38.3104 46.44C38.2587 46.3886 38.207 46.3029 38.1208 46.3543C38.0984 46.3769 38.0809 46.4037 38.069 46.4331C38.0572 46.4626 38.0513 46.494 38.0518 46.5257V48.72C38.0518 49.2 38.0001 49.3371 37.5345 49.4571C36.5001 49.7314 36.4656 49.7314 36.4656 48.6857L36.4828 44.4C36.4828 44.0743 36.6552 43.9371 36.9311 43.8171C37.569 43.5429 38.0518 43.6457 38.4828 44.2286C38.7242 44.5714 39.1035 44.8629 39.3966 45.1714C39.5518 45.3257 39.638 45.3257 39.7587 45.1543C40.1552 44.5886 40.6035 44.0743 40.9656 43.4914C41.3104 42.9086 41.8104 42.6514 42.4483 42.6343C42.7242 42.6343 42.7587 42.7714 42.7587 42.9771L42.7759 45.84C42.7683 46.5886 42.7683 47.3372 42.7759 48.0857C42.7494 48.1839 42.6912 48.2706 42.6102 48.3326C42.5291 48.3946 42.4299 48.4283 42.3277 48.4286L41.5518 48.5657C41.2587 48.6171 41.1725 48.48 41.1897 48.1886L41.207 46.1486C41.207 45.9771 41.1725 45.8057 41.1208 45.6343V45.6514ZM30.5345 48.48V46.0457C30.5274 45.9849 30.5324 45.9232 30.5494 45.8643C30.5663 45.8054 30.5949 45.7505 30.6334 45.7026C30.6719 45.6548 30.7195 45.615 30.7736 45.5856C30.8277 45.5562 30.8871 45.5378 30.9483 45.5314C31.7759 45.3257 32.5863 45.0343 33.4311 44.8971C34.0173 44.7943 34.5345 44.9314 34.8794 45.4114C35.0465 45.6478 35.1419 45.927 35.1541 46.2157C35.1663 46.5044 35.0949 46.7905 34.9483 47.04C34.7759 47.3829 34.5001 47.6743 34.1552 47.8629C33.8966 48.0171 33.8966 48.2057 34.069 48.4114C34.2759 48.6514 34.4483 48.9257 34.8449 48.8914C35.0173 48.8914 35.0518 48.9943 35.0518 49.1486V49.6629C35.0518 50.2457 34.7587 50.4857 34.1725 50.4343C33.4828 50.3829 33.0863 49.92 32.7414 49.4057C32.677 49.2951 32.6194 49.1805 32.569 49.0629C32.5577 49.0358 32.5411 49.0113 32.5203 48.9907C32.4994 48.97 32.4747 48.9536 32.4475 48.9425C32.4203 48.9314 32.3911 48.9257 32.3617 48.9257C32.3322 48.9258 32.3031 48.9316 32.2759 48.9429C32.1208 48.9771 32.1208 49.0971 32.1208 49.2171V50.64C32.1309 50.7102 32.1199 50.7819 32.0893 50.8459C32.0586 50.91 32.0096 50.9636 31.9483 51C31.5863 51.1886 31.1725 51.2914 30.7587 51.2914C30.5173 51.2914 30.5518 51.0857 30.5518 50.9143V48.48H30.5345ZM33.0863 46.1486C32.8449 46.2171 32.569 46.2857 32.2932 46.3886C32.1208 46.4571 32.0518 47.2457 32.1897 47.3486C32.2196 47.3708 32.2559 47.3829 32.2932 47.3829C32.6897 47.2971 33.138 47.2629 33.3966 46.9029C33.4543 46.8249 33.491 46.7336 33.5031 46.6375C33.5152 46.5415 33.5022 46.444 33.4656 46.3543C33.4139 46.1829 33.2587 46.1486 33.0863 46.1486ZM23.6208 52.8C23.3277 52.8 23.3794 52.5943 23.4483 52.4229L24.1208 50.7257L25.5345 47.0571C25.5614 46.9299 25.6303 46.8151 25.7303 46.7313C25.8302 46.6474 25.9556 46.5992 26.0863 46.5943C26.3198 46.5913 26.5518 46.5567 26.7759 46.4914C26.8542 46.489 26.9311 46.5131 26.9937 46.5598C27.0564 46.6066 27.1012 46.6731 27.1208 46.7486L28.5518 49.4914L29.4656 51.2229C29.6208 51.48 29.5518 51.6 29.2932 51.6686L28.1897 51.96C28.1422 51.9761 28.0919 51.9826 28.0418 51.9792C27.9917 51.9759 27.9428 51.9626 27.8979 51.9403C27.853 51.918 27.813 51.887 27.7802 51.8492C27.7474 51.8114 27.7225 51.7675 27.707 51.72C27.5863 51.4629 27.5001 51.12 27.2759 51.0171C27.069 50.9143 26.7759 51.1886 26.5173 51.1886C25.7242 51.1886 25.2242 51.4971 25.138 52.3371C25.1275 52.4107 25.0933 52.479 25.0404 52.5315C24.9875 52.5841 24.9189 52.6182 24.8449 52.6286L23.638 52.8H23.6208ZM26.2587 48.9257C26.1272 49.1207 26.0445 49.344 26.0173 49.5771C25.9828 49.8343 25.6725 50.1257 25.8794 50.2971C26.069 50.4686 26.3966 50.2114 26.6552 50.1771H26.7242C26.8449 50.16 26.8966 50.0914 26.8277 49.9886C26.638 49.6457 26.5345 49.2514 26.2587 48.9257ZM45.4139 47.88L44.4483 47.8629C44.1552 47.8457 44.0173 47.7429 44.1035 47.4171L44.2759 46.56C44.3449 46.2686 44.5345 46.2686 44.7587 46.3543C45.0518 46.44 45.3277 46.56 45.6208 46.4743C45.7057 46.4686 45.7879 46.4421 45.8601 46.3973C45.9322 46.3524 45.9922 46.2906 46.0345 46.2171C46.1208 46.0286 45.9828 45.9086 45.8621 45.7714C45.569 45.3771 45.1208 45.1543 44.7414 44.8457C44.5569 44.6929 44.4084 44.5015 44.3064 44.2853C44.2045 44.069 44.1517 43.8331 44.1517 43.5943C44.1517 43.3555 44.2045 43.1196 44.3064 42.9033C44.4084 42.687 44.5569 42.4957 44.7414 42.3429C45.3449 41.8286 46.0518 41.7429 46.8104 41.76L46.9311 41.7771C47.8794 41.8971 47.8966 41.9143 47.6725 42.84C47.6208 43.08 47.5173 43.1829 47.2587 43.1143C47.0638 43.0479 46.8608 43.0076 46.6552 42.9943C46.3794 42.9943 46.1035 43.0457 45.9828 43.3029C45.8794 43.5771 46.0173 43.8343 46.2414 44.0229C46.6035 44.3657 47.0518 44.5714 47.3794 44.9486C47.6035 45.1714 47.7587 45.4457 47.8621 45.7371C47.9739 46.0381 47.9745 46.3687 47.864 46.6701C47.7535 46.9715 47.539 47.224 47.2587 47.3829C46.707 47.7086 46.069 47.88 45.4139 47.88ZM19.2587 52.0457V48.0171C19.2587 47.5029 19.2932 47.4514 19.8277 47.4171L22.5863 47.2457C23.1035 47.2114 23.1725 47.28 23.138 47.7943C23.1208 48.4114 23.0863 48.4286 22.4828 48.48L21.207 48.5829C20.9483 48.6 20.8277 48.7029 20.8449 48.9771C20.8449 49.2514 21.0173 49.32 21.2587 49.3029L22.0345 49.2514C22.138 49.2514 22.2759 49.2171 22.3277 49.3029C22.4483 49.6114 22.4656 49.9371 22.3966 50.2457C22.3794 50.4514 22.1552 50.5371 21.9483 50.5371L21.638 50.5543C20.8449 50.6057 20.8449 50.6057 20.8449 51.4114C20.8414 51.9029 20.8471 52.3944 20.8621 52.8857C20.8384 52.9701 20.7858 53.0437 20.7135 53.0937C20.6411 53.1438 20.5534 53.1672 20.4656 53.16C20.1897 53.1943 19.8966 53.1771 19.6035 53.1943C19.3966 53.1943 19.2932 53.1086 19.2932 52.9029V52.0457H19.2587ZM48.5001 50.3143C43.4828 50.2457 38.6725 51.3086 33.9483 52.8C34.4139 52.4743 34.9139 52.2171 35.4139 52.0114C37.0345 51.2743 38.7414 50.8114 40.4311 50.2971C41.8621 49.9029 43.2932 49.6114 44.7587 49.3886C45.6208 49.2514 46.4828 49.2343 47.3449 49.32C47.9311 49.3543 48.5518 49.6971 48.5001 50.3143ZM30.6208 43.3714C30.2414 43.7143 29.7414 43.7486 29.2932 43.8857C28.2587 44.2286 27.1897 44.5714 26.1035 44.8286C25.0173 45.0686 23.9656 45.3429 22.8966 45.5143C21.6035 45.7714 20.3104 45.8743 19.0001 45.8229C18.3966 45.8057 17.8449 45.6514 17.4656 44.9657C21.8772 44.6795 26.2692 44.1473 30.6208 43.3714Z" fill="#FEFEFD"/>
<path d="M25.0518 26.8371C25.0863 27.24 25.0001 27.6343 24.8104 27.96C24.3794 28.7314 23.5001 28.8171 23.0173 28.0971C22.4829 27.2743 22.207 26.3829 22.7242 25.44C22.8006 25.2717 22.9212 25.127 23.0733 25.021C23.2254 24.915 23.4033 24.8516 23.5885 24.8376C23.7737 24.8236 23.9592 24.8594 24.1257 24.9412C24.2922 25.0231 24.4334 25.148 24.5346 25.3029C24.8794 25.7486 25.0691 26.2971 25.0691 26.8457L25.0518 26.8371Z" fill="#FEFEFD"/>
<path d="M57.6603 21.1443C57.7294 21.1703 57.7813 21.1703 57.8159 21.1182C57.5738 20.7016 57.3664 20.2502 57.228 19.7989C56.8823 18.4101 56.4155 17.0908 55.6374 15.8756C55.5162 15.7046 55.4336 15.5091 55.3954 15.3027C55.2658 14.7575 54.9623 14.2698 54.5309 13.9139C54.2024 13.6188 53.9085 13.3237 53.8048 12.8724C53.7681 12.7593 53.6951 12.6616 53.5973 12.5946C52.9231 12.1085 52.3871 11.31 52.0067 10.5809C51.8511 10.3031 51.6955 10.008 51.3497 9.92121C51.2235 9.88917 51.1071 9.82651 51.0106 9.73874C50.9142 9.65096 50.8406 9.54075 50.7965 9.41778C50.4853 8.79283 49.9147 8.35884 49.3442 7.99428C49.033 7.78597 48.9638 7.45613 48.6872 7.23046C48.4797 7.05686 48.2031 7.05686 47.9784 6.93534C47.4424 6.64023 46.9583 6.24095 46.5606 5.7896C45.9728 5.21673 45.2813 4.74802 44.5205 4.41819C44.2624 4.32351 44.0268 4.17569 43.829 3.98419C43.6853 3.83361 43.5073 3.7204 43.3103 3.65436L42.757 3.48076C42.394 3.34188 42.0309 3.22037 41.6851 3.02941C41.0161 2.61233 40.2785 2.3184 39.5067 2.16142C39.0841 2.10642 38.6744 1.97714 38.2964 1.77951C38.1837 1.69524 38.055 1.63485 37.9183 1.60203C37.7816 1.5692 37.6397 1.56462 37.5011 1.58855C37.4046 1.61135 37.304 1.61064 37.2077 1.58648C37.1115 1.56232 37.0224 1.51542 36.9479 1.44968C36.4292 1.06776 35.7722 0.894166 35.1325 0.946245C34.4064 0.980965 33.7494 0.859447 33.0578 0.720569L32.7985 0.66849C32.2279 0.525743 31.6397 0.467262 31.0523 0.494893L30.6719 0.546971C29.9804 0.63377 29.2888 0.720569 28.5799 0.494893C28.4762 0.494893 28.3725 0.494892 28.2687 0.546971C27.923 0.685849 27.5253 0.720569 27.1449 0.737929C26.8165 0.755289 26.488 0.790008 26.1768 0.876807C25.9693 0.928886 25.7791 0.894166 25.5716 0.859446C25.391 0.810824 25.2017 0.804881 25.0184 0.842086C24.5343 0.980964 24.0502 1.08512 23.5661 1.15456C22.7708 1.27608 22.0101 1.53647 21.2666 1.77951C20.5751 2.02255 19.8835 2.24822 19.1919 2.3871C18.9454 2.42287 18.7095 2.51169 18.5004 2.6475C18.12 2.94261 17.6878 3.15093 17.2729 3.35924L16.3219 3.88003C15.9762 4.08835 15.6304 4.26195 15.2846 4.43555C14.479 4.81103 13.7285 5.29585 13.0543 5.8764C12.6394 6.20624 12.2417 6.53607 11.7749 6.79647C11.3081 7.0395 10.8759 7.38669 10.5474 7.78597C10.2016 8.25468 9.80394 8.65395 9.40629 9.05323L8.85304 9.6261C8.55913 9.97329 8.19605 10.251 7.7984 10.4246C7.72361 10.458 7.65609 10.5058 7.59972 10.5654C7.54336 10.625 7.49924 10.6951 7.46991 10.7718C7.3316 10.9975 7.17599 11.2232 7.0031 11.4315C6.88208 11.6051 6.74377 11.7613 6.58816 11.9176C6.24238 12.3169 5.87931 12.7335 5.75829 13.3064C5.40592 13.9278 4.98862 14.5097 4.51347 15.0423C4.27142 15.3374 4.08124 15.702 3.87377 16.0839C3.71817 16.3617 3.56256 16.6568 3.38967 16.9172C3.14763 17.2644 3.04389 17.681 2.90558 18.0976C2.80184 18.4969 2.68082 18.9135 2.43877 19.2781C2.17943 19.66 2.0757 20.1114 1.97196 20.5454C1.86823 21.0141 1.74721 21.4828 1.45329 21.882C1.41871 21.9341 1.41871 22.0209 1.41871 22.1077V22.1598L1.38413 22.6806C1.33227 23.3576 1.2804 24.0347 1.03835 24.6943C0.813593 25.3193 0.692569 25.9963 0.744436 26.656C0.769666 26.8925 0.733945 27.1316 0.640701 27.3504C0.398653 27.8538 0.433232 28.3919 0.46781 28.8954C0.554256 29.937 0.519678 30.9959 0.536967 32.0548C0.554256 33.2179 1.15938 34.329 1.03835 35.5094C0.917328 36.7246 1.69534 38.2349 2.02383 39.398C2.36961 40.752 3.00931 42.8005 4.01208 43.8594C4.51347 44.3802 4.54805 45.335 4.98027 45.9426C5.63726 46.8453 6.57088 47.6091 7.03768 48.6681C7.41804 49.5361 8.62828 49.6749 8.93949 50.595C8.99135 50.7339 9.04322 50.8901 9.2334 50.8728C9.27901 50.8721 9.3225 50.8534 9.35443 50.8207C9.47545 50.9422 9.5619 51.0464 9.64834 51.1852C10.0979 51.9317 10.824 52.0879 11.3081 52.6955C11.5501 53.008 11.8268 53.251 12.2763 53.1816C12.2969 53.1758 12.319 53.178 12.3381 53.1876C12.3573 53.1972 12.3722 53.2136 12.38 53.2337V53.2684C12.4146 53.6677 12.7604 53.7892 13.0024 54.0149C13.6767 54.6225 14.5585 54.8655 15.2327 55.4384C15.4056 55.5772 15.5612 55.7161 15.786 55.7856C16.5294 55.9765 17.221 56.3584 17.7742 56.8966C17.878 57.0007 18.0336 57.0702 18.1892 57.0702C18.5004 57.0702 18.777 57.1743 19.0191 57.3826C19.1574 57.4868 19.3303 57.5562 19.4859 57.3826C19.6588 57.209 19.8144 57.1049 19.8316 57.5042C19.8316 57.6778 20.7825 57.9902 20.9554 58.1465C21.0419 58.2159 21.1629 58.268 21.2666 58.268C21.6989 58.268 22.1311 58.3722 22.5287 58.4763C23.1339 58.6152 23.739 58.7367 24.3441 58.702C24.8109 58.702 25.3123 58.8756 25.7272 59.0492C26.5053 59.3269 27.3178 59.4485 28.1131 59.3443C28.4589 59.2922 28.8566 59.3443 29.1851 59.4311C29.4617 59.4832 29.7383 59.5353 29.9977 59.5005L31.2771 59.379C32.1415 59.2922 33.006 59.2054 33.8704 59.0318C34.9423 58.8235 36.0143 58.5978 37.1035 58.4242L37.553 58.3721C38.2273 58.3027 38.7632 58.0597 39.3857 57.8514C39.7314 57.7125 40.2501 57.2438 40.6132 57.2958C41.2529 57.3826 41.7197 57.0875 42.0828 56.6015C42.6706 55.9071 44.0191 55.6814 44.7799 55.23C45.5233 54.7787 46.3532 54.4489 46.9064 53.7371C47.0447 53.5635 47.4597 53.4594 47.6499 53.3726C48.6872 52.9038 49.154 51.8623 50.0876 51.2894C50.6409 50.9422 51.2287 50.5082 51.4708 49.8138C51.7128 49.2062 52.7156 48.2341 53.2343 47.9043C53.3899 47.8001 53.4244 47.6439 53.4763 47.4876V47.4182C53.8567 46.203 55.0323 44.5885 55.8276 43.6338C56.3117 43.113 56.6229 42.4533 56.744 41.7416C56.865 41.0992 57.4355 40.6305 57.4355 39.9361C57.4355 39.8667 57.5047 39.7625 57.5565 39.7105C58.1271 39.0855 58.0752 38.1828 58.3345 37.4363C58.7322 36.2385 58.9224 34.9018 58.9915 33.6519C59.0434 32.7839 59.4756 31.5514 59.0953 30.7355C59.4436 29.896 59.5981 28.9883 59.5472 28.0803C59.4963 27.1724 59.2413 26.2878 58.8014 25.4929C58.7495 25.3193 58.6976 25.1457 58.6803 24.9721C58.6285 24.677 58.6112 24.3645 58.6112 24.0694C58.5766 23.3229 58.542 22.5764 58.0579 21.9168C58.0098 21.8361 57.9748 21.7482 57.9542 21.6564C57.8505 21.3613 57.2799 21.2224 57.6603 21.1703V21.1443ZM15.7341 22.9931C15.5439 22.9236 15.3365 22.8542 15.1117 22.8195C15.5266 22.5244 15.9243 22.5244 16.3047 22.5244H16.6159C16.8233 22.507 17.0308 22.4549 17.221 22.3855C17.5149 22.316 17.8088 22.2119 18.12 22.264C18.2583 22.2987 18.2583 22.1424 18.2583 22.0383C18.2583 21.8647 18.3102 21.6737 18.3448 21.4828C18.3794 21.1877 18.4312 20.9099 18.4139 20.6148C18.4336 20.3061 18.5553 20.0129 18.7597 19.7815L18.898 19.5558C19.1228 19.2087 19.3648 18.8615 19.6933 18.5837C19.8144 18.4795 19.8835 18.358 19.97 18.2365C20.0737 18.0629 20.1601 17.8893 20.3503 17.7852C20.869 17.438 21.405 17.1776 21.9755 16.9866C22.2003 16.8998 22.2694 16.9866 22.2867 17.1602V17.9761L22.183 18.8441C22.0965 19.5211 22.0101 20.1808 21.8718 20.8405L21.8545 20.9099C21.7853 21.4481 21.8026 21.4654 22.304 21.3439C23.7856 20.9506 25.2859 20.632 26.7992 20.3891C27.1795 20.3544 27.5426 20.2155 27.8711 20.0072C28.0786 19.851 28.3206 19.8336 28.5627 19.8336H28.8912C29.7383 19.6947 29.7556 19.6079 29.9804 19.0003C30.378 17.872 30.7065 16.7436 30.9831 15.5805C31.2079 14.5389 31.6747 13.5841 31.9168 12.5425C32.0205 10.9802 33.0924 10.2858 34.4064 9.81706C34.8559 9.69554 35.2881 9.5393 35.7204 9.33098C35.9278 9.22682 36.0143 9.29626 35.9797 9.52194C35.9684 9.77247 35.8973 10.0166 35.7722 10.2337C35.4264 10.7718 35.5302 11.31 35.34 11.8655C34.2854 13.9834 33.7321 16.2401 33.0578 18.4969C32.9887 18.792 33.3172 18.7052 33.4901 18.6705C34.0606 18.4622 34.6484 18.3233 35.2536 18.2365C37.1554 17.924 38.8843 17.0908 40.8207 16.8304C42.1173 16.6568 43.6734 16.2054 44.9009 15.7367C45.3504 15.5631 45.627 15.7888 45.627 16.2575C45.627 16.5005 45.5752 16.7262 45.4541 16.9345C45.2294 17.3685 44.7626 17.5595 44.3822 17.8372C43.5696 18.4101 42.4804 19.0351 41.4776 19.1739C40.4922 19.2955 39.5758 19.7815 38.5904 19.9551C37.6222 20.1287 36.7058 20.7016 35.6512 20.5627C35.6284 20.558 35.6049 20.558 35.582 20.5627C35.0634 20.8231 34.4755 20.9099 33.905 20.9793C33.4036 21.0661 32.9022 21.1356 32.4354 21.3265C32.3309 21.3596 32.2342 21.4136 32.151 21.4852C32.0678 21.5568 31.9999 21.6445 31.9513 21.7432C31.7611 22.1077 31.6401 22.507 31.5191 22.8889L31.2771 23.6527C31.0004 24.3124 30.793 25.0068 30.5855 25.7012L30.4126 26.3609L30.257 26.7254L30.1533 27.0032L29.7037 28.2878C29.3925 29.1731 29.0813 30.0585 28.8739 30.9785C28.7701 31.4125 28.6145 31.8465 28.4762 32.2458C28.3033 32.7492 28.1304 33.2353 28.044 33.7561L27.8192 34.7977C27.5772 35.8219 27.3351 36.8288 27.4734 37.9224C27.4845 38.0868 27.5308 38.2469 27.6091 38.3917C27.6875 38.5365 27.796 38.6626 27.9273 38.7615C28.0585 38.8604 28.2095 38.9296 28.3699 38.9646C28.5303 38.9995 28.6963 38.9993 28.8566 38.964C28.9603 38.9466 29.064 38.8946 29.1505 38.8078L29.6692 38.2002C29.8593 37.9919 30.0495 37.7835 30.2051 37.5579C30.8621 36.6378 30.9486 35.5789 31.0696 34.5199L31.1215 33.895C31.2425 32.9055 31.5018 31.9333 31.8649 31.0133C32.0896 30.3015 32.4008 29.6071 32.7812 28.9474C33.0924 28.4267 33.369 27.9059 33.5938 27.3504C33.6975 27.1247 33.8531 26.9337 34.026 26.7428L34.3718 26.3435C34.8905 25.5276 35.5302 24.7811 36.2563 24.1041C36.8648 23.5324 37.6688 23.2172 38.5022 23.2237C39.3355 23.2301 40.1345 23.5577 40.7342 24.1388C41.4949 24.8853 41.4776 25.7185 41.4604 26.6039V26.8469C41.4604 27.4198 41.2875 27.9927 40.9935 28.4961C40.6132 29.1037 40.1291 29.2426 39.4375 28.9822C38.6768 28.6871 38.3483 28.0447 38.089 27.333C38.0599 27.2197 38.0696 27.0998 38.1167 26.9927C38.1637 26.8856 38.2453 26.7976 38.3483 26.7428C38.4023 26.6898 38.4721 26.656 38.547 26.6466C38.622 26.6372 38.6979 26.6527 38.7632 26.6907C38.8048 26.7176 38.8402 26.7531 38.867 26.7948C39.0399 26.9858 39.7833 26.9684 40.0081 26.8122C40.0665 26.7802 40.1145 26.732 40.1464 26.6733C40.4576 25.9616 39.8006 24.8332 39.0053 24.7638C38.9823 24.7653 38.9592 24.7653 38.9361 24.7638C38.8843 24.7464 38.8497 24.7464 38.8151 24.7638L38.5039 24.9374C38.2446 25.0762 37.9852 25.2325 37.8469 25.4581C37.7086 25.7012 37.5011 25.9269 37.311 26.1352C37.0862 26.3609 36.8614 26.6039 36.7231 26.8816L36.2736 27.6975C36.0143 28.1489 35.7549 28.6176 35.5475 29.121L35.5129 29.2252C35.4956 29.2946 35.461 29.3988 35.4092 29.4335C35.1498 29.6071 35.0634 29.8675 34.9769 30.1279C34.9423 30.2494 34.9078 30.3883 34.8386 30.5098C34.5966 30.9265 34.4583 31.3778 34.3199 31.8292C34.1816 32.2632 34.0433 32.6798 33.8358 33.0791C33.7679 33.2066 33.7436 33.353 33.7667 33.4957C33.8013 33.5999 33.8013 33.704 33.7667 33.8082C33.5938 34.1033 33.5592 34.4331 33.5246 34.763C33.5074 34.9886 33.4728 35.2143 33.4036 35.44C33.371 35.6003 33.371 35.7657 33.4036 35.9261L33.4901 36.4295C33.5592 36.6899 33.6111 36.9503 33.5938 37.2107C33.5946 37.2784 33.6105 37.345 33.6404 37.4057C33.6703 37.4664 33.7134 37.5195 33.7665 37.5612C33.8197 37.6029 33.8815 37.632 33.9473 37.6464C34.0132 37.6609 34.0814 37.6603 34.147 37.6447C34.2335 37.6273 34.3199 37.5752 34.3718 37.5058C35.0109 36.8894 35.5634 36.1886 36.0143 35.4226C36.4811 34.763 36.8442 34.0338 37.1035 33.27L37.674 31.8118C37.8815 31.3431 38.089 30.8744 38.2446 30.4057C38.2931 30.2537 38.3841 30.1189 38.5067 30.0174C38.6293 29.9158 38.7783 29.8518 38.9361 29.8328C39.0572 29.8328 39.1782 29.8328 39.2819 29.7981L39.9735 29.7634C40.0687 29.7701 40.1609 29.7993 40.2427 29.8487C40.3245 29.8981 40.3935 29.9662 40.4441 30.0474C40.4947 30.1287 40.5254 30.2208 40.5337 30.3162C40.5421 30.4117 40.5278 30.5078 40.4922 30.5966C40.2501 31.1869 40.0945 31.8118 39.9562 32.4194C39.8512 32.8766 39.7243 33.3285 39.5758 33.7734C39.3338 34.5199 39.4029 35.3185 39.4721 36.0823V36.1864C39.5067 36.5163 39.766 36.5684 40.0772 36.4816C41.0454 36.2038 41.4085 35.44 41.8061 34.6588L41.8407 34.572L41.8926 34.4331C41.9472 34.3053 42.0232 34.1879 42.1173 34.0859C42.2048 34.0155 42.2756 33.9266 42.3248 33.8255C42.4113 33.5651 42.515 33.3047 42.636 33.0617C42.9126 32.402 43.2066 31.725 43.1893 30.9612C43.2066 30.1626 43.3276 29.3988 43.535 28.635L43.7252 27.5066L43.95 26.3782L44.1229 25.597C44.2266 25.0068 44.3476 24.4339 44.5551 23.8437L44.6588 23.5833C44.9406 22.9163 45.1381 22.2164 45.2467 21.5001C45.264 21.3092 45.3677 21.1529 45.4714 20.9967C45.5579 20.8231 45.6616 20.6669 45.6962 20.4759C45.7999 19.4517 46.2667 18.5663 46.7335 17.6984L46.82 17.49C46.9756 17.2123 47.062 16.9345 47.1658 16.6394L47.3387 16.1186C47.5288 15.6846 47.8055 15.2854 48.0821 14.9034C48.4168 14.4161 48.7062 13.899 48.9465 13.3584C48.9638 13.1675 49.1194 13.046 49.2405 12.9244C49.3152 12.8736 49.3847 12.8154 49.4479 12.7508C49.8802 12.1953 49.8974 12.1953 50.4507 12.5772L50.4853 12.612C50.7446 12.7856 50.9348 13.0633 51.0731 13.3584C51.3497 13.8271 51.5399 14.3306 51.6609 14.8687C51.7301 15.3722 51.7301 15.893 51.6609 16.4137C51.5572 17.1428 51.367 17.872 51.1941 18.5837L50.8484 19.9551C50.6755 20.9099 50.3297 21.83 49.8629 22.698C49.5861 23.2548 49.3604 23.8359 49.1886 24.4339C49.0676 24.8506 48.8947 25.2325 48.6699 25.5797C48.3587 26.0137 48.1512 26.4824 47.9265 26.9684C47.7536 27.4024 47.5634 27.8191 47.3041 28.2183C47.1312 28.4614 47.0275 28.7391 46.8891 28.9995C46.7681 29.2946 46.6298 29.5898 46.4396 29.8675L46.0938 30.3883L45.5233 31.2216C45.264 31.6729 45.0219 32.159 44.8317 32.6451C44.7669 32.8286 44.7432 33.0242 44.7626 33.2179C44.7626 33.704 45.0219 34.1033 45.2813 34.4678C45.5406 34.8845 45.9728 34.815 46.405 34.6935C46.7508 34.5546 47.0793 34.329 47.3041 34.0338L47.6153 33.6867L47.8228 33.4436C48.5316 32.6971 49.0849 31.8292 49.4652 30.8744L49.7073 30.2321C49.8975 29.7634 50.0876 29.2773 50.1914 28.7739C50.2087 28.6697 50.2432 28.6003 50.2951 28.5135C50.3418 28.4136 50.4189 28.3312 50.5152 28.2782C50.6115 28.2252 50.7221 28.2042 50.8311 28.2183C50.9364 28.2353 51.0317 28.2908 51.0988 28.3741C51.1658 28.4575 51.1998 28.5627 51.1941 28.6697C51.2633 29.4162 51.2806 30.18 51.004 30.8744C50.7619 31.5688 50.4334 32.2632 50.0531 32.9228C49.8456 33.2527 49.5862 33.5478 49.2923 33.7908C49.1194 33.9123 48.9984 34.1033 48.8601 34.2769C48.7564 34.4331 48.6353 34.5894 48.5143 34.6935C47.6326 35.4226 46.6817 36.0476 45.4887 35.9955C44.7972 35.9608 44.1402 35.6483 43.8635 34.8845C43.7783 34.6872 43.6801 34.4958 43.5696 34.3116C43.172 34.8671 42.7916 35.44 42.4631 36.0476C41.9444 37.0371 41.1146 37.4884 40.0772 37.7315C39.3338 37.9051 38.6941 37.6967 38.089 37.3148C37.8642 37.1759 37.7778 36.9329 37.674 36.7072C37.5378 36.4089 37.4222 36.1015 37.3283 35.7872C37.2561 35.8216 37.1915 35.87 37.1381 35.9295C37.0847 35.9891 37.0435 36.0587 37.017 36.1344C36.8442 36.6552 36.4984 37.0544 36.1526 37.4537L36.0834 37.5405C35.5648 38.2002 34.8732 38.721 34.1125 39.0334C33.4728 39.2765 32.2971 38.8598 31.8822 38.287L31.6401 37.9224L31.5191 37.7488C31.0696 38.5126 30.5682 39.2765 29.8248 39.7105C28.8047 40.2833 27.6982 40.509 26.609 39.7973C26.2286 39.5369 26.0384 39.1029 25.8483 38.7036L25.7964 38.5821C25.7824 38.5482 25.7708 38.5134 25.7618 38.4779C25.7272 38.3738 25.6927 38.287 25.6062 38.2696C25.4852 38.2696 25.4333 38.3911 25.3642 38.5126L25.3469 38.5474C24.8747 39.7807 23.9712 40.799 22.8054 41.4117C22.1657 41.7068 21.4568 41.8284 20.748 41.7416C20.1083 41.6548 19.4859 40.9777 19.4167 40.3181C19.3889 40.1259 19.3543 39.9348 19.313 39.7452C19.1206 38.4501 19.2151 37.1283 19.5896 35.874C19.8516 35.0814 20.0482 34.2686 20.1774 33.4436C20.4368 33.0964 20.5232 32.6971 20.6097 32.2979C20.6788 31.9507 20.7653 31.6035 20.9554 31.291C21.2148 30.857 21.3877 30.3709 21.5433 29.8849C21.6643 29.5377 21.7853 29.1905 21.9582 28.8433C22.0044 28.7386 22.0624 28.6396 22.1311 28.5482C22.3904 28.2357 22.5633 28.2357 22.8227 28.5482C23.203 28.9648 23.4278 29.503 23.4624 30.0758V30.1973C23.4796 30.7181 23.4969 31.2042 23.2203 31.6729C23.0387 31.9813 22.9656 32.342 23.0128 32.6971C23.0271 32.7834 23.0221 32.8717 22.9981 32.9558C22.9742 33.0399 22.932 33.1175 22.8745 33.1832C22.7016 33.4089 22.5806 33.704 22.5633 33.9991C22.3577 34.9094 22.0683 35.7986 21.6989 36.6552C21.3877 37.3495 21.2666 38.1307 21.3531 38.9119C21.3877 39.0855 21.3704 39.2591 21.3185 39.4327C21.2526 39.6141 21.253 39.8131 21.3194 39.9943C21.3859 40.1754 21.5142 40.3271 21.6816 40.4222C21.9755 40.6305 22.2521 40.4743 22.4769 40.3181C22.9564 40.0145 23.3542 39.5972 23.6353 39.1029C24.3095 37.7662 24.9665 36.4295 25.3123 34.9539C25.3987 34.6067 25.4852 34.2595 25.6062 33.9123C25.7272 33.4783 25.8656 33.0443 25.952 32.6277C26.1249 31.7771 26.3842 30.9785 26.6609 30.18C26.7992 29.7981 26.9375 29.4162 27.0412 29.0516C27.2833 28.3225 27.4734 27.576 27.6809 26.8469L28.0267 25.5102L28.2687 24.7117C28.4589 23.9999 28.6664 23.2708 28.9084 22.5764V22.5417C28.9949 22.3681 29.0813 22.1077 28.9603 22.0209C28.8617 21.9594 28.7479 21.9268 28.6318 21.9268C28.5157 21.9268 28.4019 21.9594 28.3033 22.0209C28.0746 22.119 27.8241 22.1549 27.5772 22.1251C27.3697 22.1251 27.1622 22.1251 26.9548 22.1945C26.2459 22.4896 25.4852 22.5417 24.7418 22.5764C24.3095 22.5938 23.8773 22.6112 23.4624 22.6806C22.9437 22.8021 22.425 22.8716 21.9063 22.9063C21.6989 22.9063 21.647 23.0104 21.5951 23.2014L21.4222 23.9652L21.1283 25.1978C21.0765 25.4581 21.0073 25.7012 20.9209 25.9442C20.7653 26.465 20.6097 26.9684 20.6615 27.5066C20.6788 27.5934 20.6615 27.6455 20.6269 27.7149C20.1774 28.2357 20.0391 28.9301 19.9181 29.5898L19.8662 29.8154C19.6933 30.5793 19.434 31.291 19.1401 32.0201C18.9672 32.5235 18.7597 33.0096 18.6214 33.5304C18.4195 34.2083 18.1288 34.8563 17.7569 35.4573C17.5322 35.7698 17.3939 36.1344 17.2901 36.4989C17.2037 36.8982 17.1 37.3148 16.7196 37.5752C16.6298 37.664 16.5592 37.7703 16.5121 37.8877C16.3392 38.1655 16.2009 38.4606 16.0453 38.7383L15.1809 40.2486C15.1169 40.3554 15.0278 40.4448 14.9215 40.509C14.7486 40.6286 14.6016 40.7822 14.4893 40.9604C14.0421 41.5791 13.5194 42.139 12.9333 42.6269C12.8696 42.7641 12.7731 42.8835 12.6525 42.9743C12.5319 43.0652 12.3908 43.1247 12.2417 43.1477C12.1652 43.1539 12.0925 43.1842 12.0342 43.2345C11.5847 43.7726 10.9623 43.8247 10.3572 43.8594L10.0979 43.8768L9.89039 43.8942C9.51003 43.9289 9.12967 43.981 8.73202 43.8594C8.61566 43.8392 8.5048 43.7948 8.40654 43.729C8.30829 43.6633 8.22481 43.5776 8.16148 43.4775C8.14066 43.4223 8.10469 43.3742 8.05774 43.3386C7.36618 42.9394 7.26244 42.2623 7.12413 41.6027C7.01639 41.1032 6.92987 40.5993 6.86479 40.0924V40.075L6.81292 39.7278C6.78364 39.614 6.78364 39.4945 6.81292 39.3806C7.03768 38.8251 7.05497 38.2349 7.08955 37.6447L7.10684 37.1412C7.15871 36.8982 7.24515 36.6725 7.36618 36.4468C7.50449 36.1344 7.53907 35.7872 7.59093 35.44C7.6428 35.1101 7.69467 34.7977 7.7984 34.4852L7.9713 34.0512L8.21334 33.4263C8.29979 33.1485 8.36895 32.8534 8.42081 32.5583C8.52455 32.0722 8.64557 31.5688 8.90491 31.1174C9.0778 30.7702 9.16425 30.423 9.25069 30.0411C9.31985 29.6592 9.42358 29.2599 9.63105 28.9127C9.7175 28.7912 9.7175 28.635 9.73479 28.4961C9.73479 28.3919 9.73479 28.2878 9.76936 28.1836L10.5992 25.111C10.7203 24.677 10.8413 24.243 10.7203 23.7569C10.6857 23.5833 10.7548 23.4444 10.8067 23.3055L10.8932 23.0104C10.945 22.5591 10.8413 22.1424 10.7376 21.7085L10.6684 21.396C10.5647 20.962 9.89039 20.8405 9.45816 21.205C9.28527 21.3613 9.09509 21.5001 8.88762 21.6217C8.54396 21.847 8.23024 22.1154 7.95401 22.4202C7.60822 22.7327 7.27973 23.0625 7.08955 23.4965C6.91666 23.8437 6.70919 24.1562 6.44985 24.4339C6.10407 24.7811 5.84473 25.2151 5.65455 25.6665C5.56811 25.9789 5.42979 26.2567 5.27419 26.5345C5.1013 26.9164 4.91112 27.2983 4.80738 27.7149C4.51807 28.7489 4.52407 29.8437 4.82467 30.8744C4.98027 31.3257 5.37792 31.5688 5.75829 31.8292L5.82744 31.8812L5.91389 31.9333C6.01762 31.9854 6.12136 32.0375 6.08678 32.2111C6.0522 32.4368 5.96575 32.6451 5.70642 32.6971C5.22232 32.8534 4.70365 32.8881 4.20226 32.8534C3.87131 32.7962 3.56062 32.6544 3.30017 32.4415C3.03973 32.2287 2.83833 31.952 2.7154 31.6382C2.36962 30.8744 2.30046 30.0411 2.45606 29.2252C2.57708 28.6523 2.76726 28.0968 2.95745 27.5587L3.23407 26.6907C3.30323 26.4824 3.40696 26.2914 3.54528 26.1178L3.73546 25.8227C3.96021 25.4234 4.20226 25.0589 4.44431 24.677C4.73823 24.243 5.03214 23.809 5.27419 23.3229C5.37768 23.124 5.51859 22.9472 5.68913 22.8021C6.03491 22.5244 6.31154 22.2119 6.60545 21.882C6.98582 21.4654 7.36618 21.0661 7.81569 20.7189C8.55913 20.1114 9.47545 19.7294 10.4264 19.5906C10.5647 19.5906 10.703 19.5385 10.8413 19.5038C11.0142 19.4691 11.1871 19.417 11.3427 19.417C12.0688 19.3649 12.8123 19.9898 13.1407 20.6322C13.3828 21.0661 13.4001 21.5175 13.4347 21.9688C13.4347 22.1772 13.4692 22.3855 13.5038 22.5938C13.6248 23.3923 13.4865 24.1562 13.3482 24.9026L13.2099 25.7359C13.1239 26.2562 12.9908 26.7675 12.8123 27.2636L12.5356 28.1836C12.3627 28.878 12.1553 29.5724 11.9132 30.2321C11.7749 30.5793 11.6885 30.9612 11.602 31.3257C11.5501 31.6382 11.481 31.9507 11.3773 32.2632C11.2908 32.5062 11.2044 32.7666 11.1525 33.027C11.0488 33.4436 10.9277 33.8776 10.7376 34.2595C10.6432 34.4473 10.6014 34.6573 10.6165 34.8671C10.619 35.1064 10.553 35.3414 10.4264 35.5441C10.3399 35.7177 10.2535 35.8566 10.2362 36.0476L10.0979 36.6552C10.0287 36.9329 9.95955 37.2107 9.92497 37.4884L9.89039 37.9051C9.80394 38.6862 9.7175 39.4674 9.82123 40.2833L9.8731 40.9083C9.90768 41.7068 10.7548 42.1929 11.4983 41.9846C11.9478 41.8631 12.1898 41.5506 12.3973 41.2555L12.7604 40.8215C13.3828 40.266 13.815 39.5195 14.0052 38.7036C14.0398 38.53 14.1435 38.4085 14.2473 38.2696C14.3337 38.1655 14.4201 38.0613 14.472 37.9398L14.6795 37.4537C15.0253 36.6378 15.371 35.8219 15.5785 34.9366C15.6477 34.7282 15.7168 34.5199 15.8206 34.329C16.1171 33.7726 16.3104 33.1667 16.3911 32.5409C16.4084 32.3326 16.4776 32.1069 16.5813 31.916C17.1 30.6834 17.2901 29.3641 17.4457 28.0447C17.4803 27.9059 17.5149 27.767 17.5841 27.6455C17.6451 27.57 17.6867 27.4806 17.7051 27.3851C17.7051 27.0032 17.7742 26.6212 17.8434 26.2393C17.9298 25.7012 18.0163 25.163 17.9471 24.6075C17.9325 24.2178 17.9615 23.8276 18.0336 23.4444C18.0509 23.2361 18.0336 23.0972 17.7742 23.184C17.6657 23.2172 17.5516 23.2282 17.4387 23.2163C17.3259 23.2043 17.2165 23.1698 17.1172 23.1146C17.0555 23.0775 16.9867 23.0537 16.9152 23.0447C16.8438 23.0357 16.7713 23.0418 16.7023 23.0625C16.3565 23.2187 16.0626 23.1146 15.7341 22.9931ZM41.08 45.4912L40.9935 44.9705C40.544 45.4392 40.1291 45.9079 39.7314 46.4287C39.4721 46.7064 39.2819 46.7238 39.0226 46.4634L38.3829 45.9426L38.1754 45.769L38.1408 45.7343C38.089 45.6996 38.0371 45.6475 37.9679 45.6996C37.929 45.7486 37.9104 45.8107 37.9161 45.8732V48.0778C37.9161 48.5639 37.8469 48.7028 37.3801 48.8243C36.3428 49.1021 36.3255 49.1021 36.3255 48.0431C36.3085 46.5965 36.3085 45.1498 36.3255 43.7032C36.3255 43.3734 36.4984 43.2519 36.7923 43.1303C37.432 42.8526 37.8988 42.9567 38.331 43.547C38.4866 43.7726 38.6768 43.9462 38.9016 44.1372L39.2473 44.4844C39.4202 44.6406 39.4894 44.6406 39.6277 44.4844C39.7487 44.2761 39.9043 44.0851 40.0426 43.9115C40.302 43.547 40.5786 43.1824 40.8207 42.7831C41.1664 42.1755 41.6851 41.9499 42.3248 41.9151C42.5841 41.9151 42.6187 42.054 42.6187 42.2623V43.547L42.636 45.1614V46.1683C42.6305 46.5907 42.6305 47.0131 42.636 47.4355C42.6094 47.5349 42.551 47.6228 42.4698 47.6855C42.3885 47.7483 42.289 47.7824 42.1865 47.7827L41.7024 47.8695L41.4258 47.9216C41.1319 47.9737 41.0454 47.8522 41.0454 47.5571C41.08 46.8627 41.08 46.1683 41.08 45.4739V45.4912ZM30.3607 47.8522H30.378V47.5223L30.3607 45.3871C30.3459 45.2653 30.3793 45.1425 30.4536 45.0452C30.528 44.9478 30.6374 44.8836 30.7584 44.8663L31.7957 44.5885C32.2798 44.4497 32.7639 44.3108 33.248 44.224C33.8358 44.1198 34.3545 44.2587 34.7003 44.7448C34.8679 44.9842 34.9636 45.2668 34.9758 45.5592C34.9881 45.8515 34.9164 46.1413 34.7695 46.394C34.5966 46.7411 34.3199 47.0363 33.9742 47.2272C33.7148 47.3835 33.7148 47.5744 33.8877 47.7827L33.9223 47.8348C34.1125 48.0778 34.3027 48.3035 34.6657 48.2688C34.8386 48.2688 34.8905 48.3556 34.8905 48.5292V49.05C34.8905 49.6402 34.5966 49.8833 33.9914 49.8312C33.2999 49.7791 32.9195 49.3104 32.5564 48.7896C32.4919 48.6775 32.4341 48.5615 32.3836 48.4424C32.3722 48.415 32.3556 48.3902 32.3347 48.3693C32.3138 48.3484 32.289 48.3318 32.2617 48.3205C32.2344 48.3092 32.2051 48.3035 32.1756 48.3035C32.1461 48.3036 32.1169 48.3095 32.0896 48.3209C31.934 48.3556 31.934 48.4771 31.934 48.5986V50.0395C31.9442 50.1106 31.9332 50.1831 31.9025 50.248C31.8717 50.3129 31.8225 50.3671 31.7611 50.404C31.4154 50.595 30.9831 50.6992 30.5682 50.6992C30.3607 50.6992 30.3607 50.5256 30.3607 50.352V47.8522ZM23.9637 52.1747L23.4451 52.2442C23.1512 52.2442 23.203 52.0359 23.2722 51.8449L23.5661 51.0984L23.9465 50.1263L24.2231 49.4319L25.3642 46.4113C25.3944 46.2856 25.4649 46.1734 25.5649 46.0918C25.6648 46.0103 25.7887 45.964 25.9174 45.96C26.1524 45.9515 26.3851 45.9107 26.609 45.8384C26.6868 45.8389 26.7624 45.8645 26.8247 45.9113C26.8869 45.9582 26.9325 46.024 26.9548 46.0988L27.8884 47.9216L28.4071 48.8764L28.6837 49.4319L29.3061 50.6471C29.4617 50.9075 29.3925 51.029 29.1332 51.0811L28.044 51.3762C27.9944 51.3981 27.9407 51.4092 27.8865 51.4086C27.8323 51.408 27.7789 51.3958 27.7297 51.3728C27.6806 51.3498 27.637 51.3165 27.6017 51.2752C27.5665 51.2338 27.5404 51.1854 27.5253 51.1332C27.5253 51.0984 27.5253 51.0811 27.4907 51.0464C27.4043 50.786 27.2833 50.4908 27.1277 50.4214C27.0239 50.3693 26.8856 50.4214 26.73 50.4908C26.6123 50.5557 26.4831 50.597 26.3496 50.6124C25.5543 50.6124 25.053 50.9248 24.9665 51.7755C24.9537 51.8444 24.9205 51.9078 24.8711 51.9574C24.8217 52.007 24.7585 52.0404 24.6899 52.0532L23.9637 52.1747ZM47.1658 46.7411C46.6125 47.0883 45.9555 47.2619 45.3158 47.2619V47.2446H44.3476C44.0537 47.2099 43.9154 47.071 44.0019 46.7932L44.1056 46.2724L44.1748 45.9252C44.2439 45.6301 44.4341 45.6301 44.6588 45.6996H44.6934L44.7626 45.7343C45.0219 45.8211 45.264 45.9079 45.5406 45.8384C45.6244 45.8281 45.7044 45.7974 45.7737 45.749C45.843 45.7006 45.8995 45.636 45.9382 45.5607C46.0074 45.3871 45.921 45.2829 45.8172 45.1614L45.7826 45.1267C45.5674 44.8724 45.317 44.6503 45.0392 44.467C44.9009 44.3802 44.7626 44.2934 44.6416 44.1719C44.4595 44.0171 44.3132 43.8243 44.2128 43.607C44.1125 43.3896 44.0605 43.1529 44.0605 42.9133C44.0605 42.6738 44.1125 42.4371 44.2128 42.2197C44.3132 42.0024 44.4595 41.8096 44.6416 41.6548C45.2382 41.1969 45.9867 40.9857 46.7335 41.0645H46.8373C47.7882 41.186 47.7882 41.2034 47.5807 42.1582C47.5288 42.3839 47.4078 42.5054 47.1658 42.4186C46.9703 42.3514 46.7668 42.3105 46.5606 42.2971C46.284 42.2971 46.0074 42.3491 45.8864 42.6269C45.7826 42.9047 45.921 43.1477 46.1457 43.356C46.284 43.4775 46.4396 43.599 46.6125 43.7032C46.8546 43.8768 47.0966 44.0504 47.3041 44.2761C47.4943 44.5191 47.6499 44.7969 47.7709 45.0746C47.8829 45.3794 47.8836 45.7141 47.7728 46.0193C47.662 46.3245 47.4469 46.5803 47.1658 46.7411ZM19.0882 51.463V50.6471L19.0709 47.3835C19.0709 46.8453 19.1055 46.8106 19.6242 46.7759L21.1975 46.6717L22.3904 46.5849C22.9091 46.5502 22.9783 46.637 22.961 47.1578C22.9264 47.7827 22.9091 47.8001 22.2867 47.8522L21.8199 47.8869L21.0073 47.9563C20.748 47.9737 20.6269 48.0778 20.6615 48.3556C20.6615 48.6507 20.8171 48.7028 21.0765 48.6854C21.2839 48.6507 21.4914 48.6507 21.7162 48.6334H21.889C21.9928 48.616 22.0965 48.5986 22.1484 48.6854C22.2521 48.9979 22.2694 49.3277 22.2003 49.6402C22.183 49.8485 21.9582 49.918 21.7507 49.918L21.5951 49.9353H21.4395C20.6615 50.0048 20.6615 50.0048 20.6615 50.8033V52.1227C20.6748 52.1795 20.6748 52.2387 20.6617 52.2956C20.6487 52.3524 20.6227 52.4056 20.586 52.4508C20.5493 52.4961 20.5027 52.5323 20.4499 52.5567C20.397 52.581 20.3393 52.5929 20.2812 52.5914L19.7279 52.6261H19.4167C19.2092 52.6261 19.0882 52.5393 19.0882 52.331V51.463ZM47.2349 48.6854C47.8228 48.7375 48.4452 49.0847 48.3933 49.727C43.3622 49.6402 38.5385 50.7165 33.8186 52.2268C34.2681 51.897 34.7695 51.6366 35.2881 51.4283C36.7231 50.7512 38.2446 50.2999 39.7833 49.8659L40.302 49.6923C41.737 49.293 43.172 48.9979 44.6243 48.7722C45.4887 48.6334 46.3532 48.616 47.2176 48.7028L47.2349 48.6854ZM17.2729 44.3108C21.7507 44.0851 26.1076 43.4081 30.4645 42.679C30.1878 42.922 29.8421 43.0262 29.5136 43.0956L29.1332 43.1998C28.0786 43.547 27.0066 43.8942 25.9347 44.1546L25.6927 44.2066C24.7072 44.4323 23.7217 44.6753 22.7189 44.8663C21.4222 45.1267 20.1256 45.2135 18.8116 45.1614C18.2065 45.1441 17.6359 44.9878 17.2729 44.2934V44.3108ZM24.3614 24.3818C24.7072 24.8332 24.8974 25.3887 24.8974 25.9442C24.9146 26.3435 24.8282 26.7428 24.638 27.0726C24.1885 27.8364 23.324 27.9406 22.84 27.2115C22.304 26.3782 22.0274 25.4755 22.546 24.5207C22.6227 24.3503 22.7436 24.2037 22.8961 24.0964C23.0486 23.9891 23.227 23.9249 23.4127 23.9107C23.5984 23.8965 23.7845 23.9328 23.9514 24.0157C24.1183 24.0986 24.2599 24.225 24.3614 24.3818Z" fill="#DA2D25"/>
</g>
</g>
<defs>
<clipPath id="clip0_168_309">
<rect width="60" height="60" fill="white"/>
</clipPath>
<clipPath id="clip1_168_309">
<rect width="60" height="60" fill="white"/>
</clipPath>
</defs>

</g>
</svg>