<svg xmlns="http://www.w3.org/2000/svg" viewBox="0 0 32 32" width="32" height="32">
  <rect width="32" height="32" rx="8" fill="#141312" />
  <rect x="1" y="1" width="30" height="30" rx="7" fill="none" stroke="#C99A75" stroke-opacity="0.35" stroke-width="1.2" />
  <!-- Elegant geometric Alpha & Vector Monogram -->
  <path d="M 9 22 C 7.5 19 7 16 9 13.5 C 11 11 14.5 11 17 13 C 19.5 15 20.5 18 20 21 C 19.5 22.5 17.8 23 16 22.5 C 13.5 21.8 11.5 19 12 16 C 12.5 13 15 10 18.5 9 C 21.5 8.2 24 10 24.5 13 C 25 16 23.5 19.5 23 22" fill="none" stroke="#C99A75" stroke-width="2.2" stroke-linecap="round" stroke-linejoin="round" />
</svg>
